<?xml version="1.0" encoding="UTF-8"?>
<svg version="1.1" viewBox="0 0 1280 1280" width="220" height="220" xmlns="http://www.w3.org/2000/svg">
<path transform="translate(247,564)" d="m0 0h7l8 8 9 11 10 10 7 8 9 10 11 12 18 20-1 9-15 47-9 27-7 22-7 3-52 11-36 8-5 1h-9l-9-9-7-8-11-12-9-10-7-8-22-24-7-9 2-9 11-34 11-35 8-25 5-3 41-9z" fill="#4AAC33"/>
<path transform="translate(455,632)" d="m0 0h5l7 7 7 8 12 13 7 8 12 13 27 30-1 10-10 30-8 26-10 31-4 9-15 4-59 13-28 6h-5l-9-9-7-8-12-13-7-8-11-12-7-8-12-13-7-8v-7l10-32 22-66 2-2 50-11z" fill="#777B86"/>
<path transform="translate(410,420)" d="m0 0h8l8 8 7 8 11 12 7 8 12 13 9 10 11 12 7 8-1 8-15 46-16 50-5 3-69 15-28 6h-6l-7-6-7-8-9-10-7-8-11-12-7-8-11-12-9-10-4-5v-7l13-41 10-31 8-24 4-4 75-16z" fill="#263C6C"/>
<path transform="translate(767,557)" d="m0 0h46l12 14 22 26 9 11 11 13 9 11 13 15 9 11 12 14 9 11 2 1v-126l1-1h35v177h-42l-8-8-9-11-39-45-11-13-9-10-9-11-9-10-9-11-5-5v-2l-3-1-1 127-32 1-4-1z" fill="#273C6C"/>
<path transform="translate(1076,553)" d="m0 0h34l39 2 11 1 1 1v30l-4 1-31-2h-51l-17 3-12 4-10 6-5 4-7 11-4 11-2 11v21l3 17 5 12 5 6v2l4 2 8 5 11 4 6 1h38l24-3 9-1v-35l-2-1-51-1-1-1-1-25 1-2 8-1h80l3 2v87l-2 2-22 4-26 4-17 2-21 1h-17l-21-2-15-4-12-5-10-7-8-7-7-10-7-14-4-16-2-12v-28l4-20 6-15 7-11 10-11 13-9 16-7 15-4 15-2z" fill="#283D6C"/>
<path transform="translate(612,556)" d="m0 0h131l6 1v30l-1 1-102 1v39h92l4 2v26l-1 2-94 1-1 1v42l106 1 2 2v29l-8 1-140-1v-177z" fill="#283D6C"/>
<path transform="translate(794,489)" d="m0 0h10l10 3 5 6 1 3v13l-3 6-7 4-4 1h-14l-9-4-4-5-1-3v-12l3-6 5-4zm-3 4-7 4-2 5v10l3 5 3 3 7 2h7l10-3 4-5v-13l-3-5-6-3z" fill="#3D4E73"/>
<path transform="translate(655,490)" d="m0 0h21l7 3 2 5-1 7-4 4-4 1 4 6 5 7v1h-5l-9-12-12-1v12l-4 1-1-4v-28zm4 3-1 2v7l1 5h18l4-5-1-6-6-3z" fill="#394B72"/>
<path transform="translate(626,489)" d="m0 0h12l3 1v3h-13l-8 2-5 4-1 3v11l3 5 6 3h8l7-2 1-9-11-1v-3h13l2 1v15l-4 2-7 1h-12l-8-5-3-5v-14l4-7 4-3z" fill="#405074"/>
<path transform="translate(741,490)" d="m0 0h21l7 3 2 3v10l-5 5-2 1-17 1-2 1-1 10-4-1v-32zm4 3-1 1v11l1 4h16l5-3 1-1v-8l-3-3-4-1z" fill="#3B4C72"/>
<path transform="translate(695,490)" d="m0 0 4 1 1 24 5 5 9 1 8-3 2-6 1-22 4 1v24l-3 6-5 3-4 1h-11l-7-3-4-5z" fill="#3C4D73"/>
</svg>
