<?xml version="1.0" encoding="UTF-8"?>
<svg version="1.1" viewBox="0 0 2000 2000" width="220" height="220" xmlns="http://www.w3.org/2000/svg">
<path transform="translate(1205,361)" d="m0 0 53 4 63 7 32 5 24 6 19 6 28 10 20 8 28 11 27 12 26 14 24 16 12 9 13 11 8 7 13 12 9 10 12 14 12 15 10 15 14 27 11 26 8 22 7 26 3 22 1 14v40l-3 29-5 21-17 51-11 28-9 20-14 26-11 16-11 13-9 10-10 11-7 8-15 16-9 9-14 11-13 9-11 7-16 12-10 7-14 11-13 8-22 11-39 17-23 8-4 3v2l8 5 3 4-1 8-7 16-26 60-7 15-16 36-13 30-12 29-11 27-14 33-10 21-8 11-9 10-9 6-13 6-16 4-22 2h-11l-18-2-11-3-11-6-10-8-11-12-10-15-15-28-14-27-7-16-7-18-7-22-5-12-5-1-11 27-16 39-14 33-9 20-13 28-8 17-6 5h-93l3-9 8-16 8-19 10-25 8-18 9-17 13-30 11-24 11-27 12-30 10-26 16-43 13-31 6-8 16 1h12l8-4-2-5-5-5-9-6-12-7-13-11-9-9-11-14-11-17-7-14-5-17-1-6v-24l5-19 8-20 10-19 9-14 11-14 9-11 7-7 3-4h2v-2l8-7 16-13 19-13 15-10 15-9 21-11 19-8 26-10 28-9 36-10 40-9 42-8 51-7 29-3 23-1h12l30 2 18 4 18 6 9 5 10 9 5 8 5 9 7 3 6-1 10-9 12-9 12-14 7-11 8-15 3-9 1-13-2-10-4-9-5-8-9-11-9-8-21-13-19-8-25-9-27-8-28-7-31-6-39-6-54-5-47-2h-49l-9 1-3 5-2 6h-7l-4-5-6-4-21-5-9-2v-3h18l7-1 27-1 118-1 11-2 2-2v-8l-4-13-7-12-9-8-10-5-16-5-35-8-29-4-58-5-22-1-111-1h-225l3-5 11-8 20-13 24-14 27-14 16-8 29-13 28-11 24-9 27-7 43-9 36-6 47-6zm-124 733 1 4 11 15 8 13 10 23 21 53 13 34 12 30 10 24 10 21 6 10 4 5 4-2 6-10 10-24 9-23 11-28 10-26 8-20 8-17 8-11 20-20 14-11 14-12 10-9 5-6v-2l-49 2h-91l-32-1-31-3-33-7z" fill="#053475"/>
<path transform="translate(1566,1094)" d="m0 0h37l27 1 38 4 25 4 10 4 8 6 13 16 14 19 10 14 13 16 5 6 4-2 10-7 7-7 13-10 11-10 8-7 10-9 8-7 6-6h2l2-4 11-12 7-4 110-1 21-2-4 5-11 9-12 10-11 9-13 11-8 7-13 11-13 12-8 7-12 12h-2l-2 4h-2l-2 4-8 7-13 12-11 9-16 15-11 9-9 9 1 5 15 27 12 19 12 16 12 14 9 10 13 17 9 10 7 8 14 11 14 12 12 7v1h-8l-18-2-77-1-13-1-10-4-13-10-12-12-9-11-9-10-11-14-13-16-5-6-4-2-5 1-11 9-9 9-8 7-15 14-8 7-16 15-11 9-7 7-14 10-13 3h-116v-3l7-6 11-8 10-8 10-9 11-9 20-20h2v-2l8-7 13-12 14-11 12-11 8-7 7-7 8-7 7-7 8-7 8-8 11-9 7-7-1-6-16-31-13-23-11-20-10-15-10-13-11-13-14-14-14-9-14-5-11 3-11 6-14 12-3 1v2h-2l-2 4-10 14-8 14-7 15-12 34-11 29-15 38-9 24-10 25-14 34-9 21-8 17-8 16-8 4h-67l-18-1-1-4 7-15 15-36 14-33 12-30 7-19 9-26 8-19 11-25 13-27 12-19 7-9 10-10 7-8 11-9 9-8 16-9 16-5 21-4 32-5z" fill="#D02D1B"/>
<path transform="translate(1015,1093)" d="m0 0 16 1h12l5-1 20 6 13 5 9 6 5 5 6 9 9 20 23 58 13 34 12 30 10 24 10 21 6 10 3 3v2l4-4 5-8 10-24 9-23 11-28 10-26 8-20 8-17 8-11 21-21 14-11 14-12 10-9 4-3 31-7h9l17-3 3 4-1 8-7 16-26 60-7 15-16 36-13 30-12 29-11 27-14 33-10 21-8 11-9 10-9 6-13 6-16 4-22 2h-11l-18-2-11-3-11-6-10-8-11-12-10-15-15-28-14-27-7-16-7-18-7-22-5-12-5-1-11 27-16 39-14 33-9 20-13 28-8 17-6 5h-93l3-9 8-16 8-19 10-25 8-18 9-17 13-30 11-24 11-27 12-30 10-26 16-43 13-31z" fill="#D02D1B"/>
<path transform="translate(717,1214)" d="m0 0h206l-1 5-9 19-10 19-8 11-7 9-7 6-9 4-7 4-16 2-22 1-211 1-3 3-4 12-3 16v11l6 1 256 1 1 5-5 17-9 17-9 12-11 10-8 5-18 5-13 4-6 1-328 1 2-6 10-18 8-16 9-19 8-20 7-16 10-18 10-15 7-12 9-13 5-6 15-10 16-8 19-8 24-7 28-5 24-3 13-1z" fill="#D02D1B"/>
<path transform="translate(491,1213)" d="m0 0h19l2 1v9l-5 13-14 25-8 11-5 6-9 4-12 5-5 4-9 2-29 1-204 1-6 2-15 31-22 52-9 20-6 12-4 3h-94l8-18 14-34 13-31 14-28 10-18 7-11 8-11 10-10 14-10 15-8 25-9 23-5 46-6 13-1 32-1z" fill="#D12D1B"/>
<path transform="translate(744,1091)" d="m0 0h179l46 1-1 7-8 19-5 14-10 18-7 5-12 5-18 7-13 3-9 1-44 1h-116l-78 1-19 2-27 7-16 4-18 8-19 8h-4v-8l9-16 8-11 11-16 12-14 12-12 12-9 16-9 14-6 21-5 19-3 13-1z" fill="#D02D1B"/>
<path transform="translate(291,1095)" d="m0 0h265l1 4-12 21-8 16-9 13-9 8-9 6-16 6-16 2-52 1h-135l-45 1-22 2-33 7-14 5-21 10-17 8h-2l1-5 8-15 14-22 14-18 4-5h2l2-4 15-14 13-8 20-8 22-6 23-4z" fill="#D02D1B"/>
<path transform="translate(383,599)" d="m0 0h635l33 2 34 6 17 4 12 6 2 4-1 1h-744l1-7 6-11z" fill="#053475"/>
<path transform="translate(340,702)" d="m0 0h533l51 1 19 3 27 9 17 8 3 4-1 4-18-1-14-1-38-1h-589l1-8 5-12z" fill="#053475"/>
<path transform="translate(299,807)" d="m0 0 489 1 25 1 26 4 22 5 12 6 6 5 2 3v3l-22-1-43-1h-530l1-9 5-10z" fill="#053576"/>
<path transform="translate(361,654)" d="m0 0h629l18 1 16 3 8 4 13 12-3 1-9-2h-677l-4-1 1-5 4-9z" fill="#053576"/>
<path transform="translate(320,755)" d="m0 0h242l264 1 49 1 23 2 35 10 5 3v5l-2 2-42-2-37-1h-547l1-5 6-12z" fill="#053576"/>
<path transform="translate(275,862)" d="m0 0h502l18 1 14 3 8 6 14 10 2 3v3l-11-1-7-1-17-1-37-1-142-1h-268l-58 1h-27l-1-4 8-16z" fill="#053576"/>
<path transform="translate(310,912)" d="m0 0 369 1 23 1 15 3 38 10 12 4 2 2-1 6h-12l-43-3-79-1h-389l3-9 6-10 3-3z" fill="#053576"/>
<path transform="translate(234,968)" d="m0 0h415l20 1 14 3 27 7 4 3v6l-1 1h-489l-2-1 1-7 5-9z" fill="#053576"/>
<path transform="translate(1310,1525)" d="m0 0h9l9 4 3 3 1 3v11l-2 21v34l7-7 7-8 12-13 7-10 7-12 6-10 6-9 7-5 6-2h12l5 5-1 9-7 24-6 22-6 24-5 15-6 11-5 5-5 3-7 1-10-1 8-20 6-14 4-15v-15l-6 5-8 14-13 17-9 14-5 9-6 5h-6l-7-6-1-2v-21l-1-37-9 6-8 26-8 28-7 6h-15l-7-3-1-2 11-23 10-25 6-19 8-18 8-20 3-5z" fill="#053475"/>
<path transform="translate(274,1524)" d="m0 0 8 2 8 7 3 5 16 48 4 7 6-10 11-26 5-12 3-8 7-9 4-2h13l1 1-1 10-8 21-19 57-3 12-7 14-3 2h-16l-8-4-5-6-6-19-5-18-5-11v-2h-5l-4 8-7 18-7 24-5 7-7 2-12 1-4-4 2-10 6-14 20-59 10-25 5-5z" fill="#053576"/>
<path transform="translate(517,1527)" d="m0 0h46l10 3 6 4 3 9v18l-5 9-10 13-3 6 1 9 1 4v11l-5 17-6 10-4 3-16 1-3-2v-8l5-17-1-14-18-5-4-2h-7l-4 5-4 13-4 17-2 8-3 3-2 1h-21l-5-3v-8l6-20 11-28 8-18 12-33 3-3 7-2zm13 22-8 4-4 5-3 9v9l5 5 16 2 9-1 3-4 5-13v-8l-4-5-8-3z" fill="#053576"/>
<path transform="translate(945,1524)" d="m0 0h8l3 3 1 9-7 21-13 34-3 6-1 5v12l5 6 7 3h7l12-6 6-8 5-9 18-51 4-12 6-8 5-3h20l1 1-1 11-11 35-11 26-5 10-10 13-5 6-10 7-11 5-11 3-8 1h-22l-12-4-7-6-5-10-1-10 4-13 7-16 5-13 9-22 5-16 4-6 6-3z" fill="#053576"/>
<path transform="translate(1486,1526)" d="m0 0 18 1 15 5 8 6 6 7 4 11 1 8-3 14-7 16-7 12-8 10-8 8-10 8-14 8-10 3-7 1h-23l-9-4-8-7-6-10-3-9-1-9 4-17 9-16 13-15 18-18 11-7 11-5zm-4 19-10 5-8 7-9 13-5 12-3 12v15l3 8 6 5 8 1 11-2 9-5 13-13 4-7 3-9 2-14v-9l-5-12-5-5-3-2z" fill="#053576"/>
<path transform="translate(1210,1526)" d="m0 0h16l14 4 9 5 7 6 5 9 1 4v17l-11 23-7 13-8 10-12 13-10 7-13 5-11 2h-20l-9-2-8-5-8-9-4-9-1-4v-10l4-16 8-17 12-16 9-9 16-12 14-7zm-2 19-10 5-7 6-10 15-7 14-3 9v13l4 8 7 6 2 1h15l10-4 10-9 7-11 3-8 2-13v-16l-4-10-6-5-2-1z" fill="#053475"/>
<path transform="translate(1888,1527)" d="m0 0h19l11 4 9 6 6 8 3 7 1 5v11l-3 14-5 13-8 14-12 13-12 10-16 9-15 4h-17l-10-3-9-6-6-8-3-7-1-6v-13l5-17 8-16 8-12 12-13 10-8 13-6zm-3 20-10 4-12 10-8 10-7 15-2 8v14l3 9 6 5 8 2 11-1 10-4 10-9 7-8 4-11 2-18v-10l-4-9-5-5-4-2z" fill="#053576"/>
<path transform="translate(652,1527)" d="m0 0h22l14 4 8 5 6 7 4 9v24l-4 13-9 16-10 13-10 10-10 7-12 6-11 3-17 1-13-2-9-5-8-9-4-10-1-5v-13l5-17 7-13 13-17 17-17 12-7zm0 18-10 5-12 11-8 11-4 11-2 11v11l3 10 5 6 5 2h14l11-4 10-7 7-8 5-13 2-10v-19l-4-9-8-7-3-1z" fill="#053576"/>
<path transform="translate(164,1527)" d="m0 0h32l47 2 4 1-3 10-6 10-3 2h-8l-13-2-12-1h-15l-8 2-3 20-4 10-1 3 6-10 20-1h17l5 4-3 9-5 5-6 1h-38l-4 5-2 8v9l8 4 4 1 35 1 2 2v11l-4 7-6 3h-37l-36-1-7-2 1-7 7-15 12-29 6-16 8-21 7-20z" fill="#053576"/>
<path transform="translate(867,1524)" d="m0 0h6l6 4 3 5 2 29 1 23 1 46-2 8-3 3-2 1h-15l-7-2-4-6v-7h-7l-16-6h-7l-10 5-9 10-5 4-5 2h-9l-5-2 5-10 12-18 13-21 12-19 9-10 7-9 10-12 8-11 6-5zm-12 41-6 4-6 7-5 5-5 8-1 5v7l4 6 10 4 8-1 5-6 2-6v-24l-3-8z" fill="#053475"/>
<path transform="translate(78,1527)" d="m0 0h19l10 3 6 4 5 6 5 12v11l-6 6h-7l-9-4-8-7-5-6-7-4-9 1-10 5-11 10-9 14-5 11-2 9v11l3 8 6 5 4 1h9l10-3 9-5 12-9 10-8 4-2h5l1 1v10l-6 8-12 13-11 8-10 5-8 2-9 1h-17l-12-3-9-8-5-8-3-11 1-14 4-13 8-14 10-14 12-13 15-11 14-6z" fill="#053576"/>
<path transform="translate(1827,1523)" d="m0 0h7l2 1-1 6-10 16-16 23-11 17-11 18-20 26-9 10-8 3h-11l-5-4-2-3-1-8v-76l2-20 2-6 8-1h10l3 3 1 4v27l-1 20v15l2 10 7-6 9-11 9-14 16-24 13-18 5-4z" fill="#053576"/>
<path transform="translate(382,1528)" d="m0 0h97l2 1v7l-3 9-6 5-9 2h-18l-5 2-4 5-10 28-10 30-5 17-4 6-2 2-7 1h-10l-8-2-2-2 2-9 10-25 9-21 6-18v-6l-4-3-9-3-12-3-5-5v-10l3-5z" fill="#053475"/>
<path transform="translate(1055,1528)" d="m0 0h86l7 3v8l-7 9-6 3-16 1-8 4-5 10-6 17-10 26-9 22-5 8-7 4-9 1-6-4-1-5 6-19 11-34 3-15-1-6-6-5-11-6-5-6-1-2v-8l4-5z" fill="#053576"/>
<path transform="translate(1574,1527)" d="m0 0 77 1 9 3-1 6-7 9-3 3-6 2-21 3-4 4-4 8-10 23-6 17-8 21-4 11-6 5h-14l-4-4 1-7 9-29 7-21 3-12v-9l-3-5-9-3-8-4-3-5-1-9 1-3 6-4z" fill="#053475"/>
<path transform="translate(1700,1525)" d="m0 0h8l1 1v7l-5 14-16 40-6 17-8 23-6 12-5 4-5 1h-8l-6-4v-7l7-24 21-63 8-16 7-3z" fill="#053576"/>
</svg>
