<?xml version="1.0" encoding="UTF-8"?>
<svg version="1.1" viewBox="0 0 2000 2000" width="220" height="220" xmlns="http://www.w3.org/2000/svg">
<path transform="translate(959,296)" d="m0 0h20l20 2 16 4 16 8 11 9 7 9 7-1h25l18 4 14 6 11 7 11 9 10 10 10 13 7 12 3 10 4 5v3l-25-5-6-1 2 5 11 27 4 13 4-2 15-9 13-5 14-3 7-1h17l8 7 10 13 8 14 7 15 7 21 3 21-10-2-30-7-14-2-16-1v2l11 3 33 16 21 12 19 12 17 12 17 13 11 9 10 9 8 7 7 6v2l4 2 8 8 7 8 13 14 9 11 10 13 13 18 10 15 13 22 9 16 11 23 12 29 12 36 6 23 7 33 4 19 4 8 8 7 14 5 47 14 32 10 43 15 39 14 50 20 38 16 33 15 30 14 15 8 9 7 9 9 7 11 5 14 1 6v17l-2 7v7l2 9v18l-4 13-6 11-7 8-11 9-13 12-11 9-15 14-8 7-16 15-10 9-12 11-15 15-8 13-4 12-5 37-6 46-9 58-4 16-7 14-11 12-9 7-10 5-10 3-7 1h-8l-10-2-12-5-34-16-37-16-30-12-40-15-47-16-43-13-56-15-18-4h-12l-12 6-18 13-15 10-22 13-18 10-23 11-27 11-36 12-27 7-31 6-39 5-13 1-34 1-39-2-32-4-37-7-26-7-36-12-29-12-34-17-17-10-19-12-18-13-13-9-9-4h-11l-39 9-52 14-42 13-36 12-38 14-40 16-30 13-35 16-18 8-11 2h-8l-14-3-14-7-12-11-8-11-7-16-5-27-12-86-5-38-3-10-6-11-9-11-8-7-11-11-8-7-16-15-10-9-12-11-8-7-14-12-10-9-8-7-8-9-7-14-2-7v-21l2-6v-7l-2-6v-22l5-15 7-11 9-10 8-7 27-14 33-15 29-13 41-17 46-18 47-17 43-14 52-16 30-8 12-5 5-4h2l2-4 4-10 8-40 6-23 10-32 13-32 14-29 15-27 13-20 14-20 8-10 11-14 11-12 7-8 6-7h2l2-4h2l2-4 8-7 14-13 11-9 18-14 18-13 19-12 26-15 24-12 20-9 1-1 3-28 6-24 4-12 2-5-5 1-8 4h-3l2-5 9-11 5-6 1-2-16 7-7 3 2-5 13-16 9-11 9-10 17-17 14-11 18-13 21-11 16-6 27-5h3v-2l-10-2-1-2 18-3-5-3-19-8v-2zm-20 378-7 3-4 5-4 18-5 12-10 13-1 4h7l18-6 14-9 9-9 5-8 1-3v-8l-4-6-4-4-5-2zm175 2-6 4-8 9-10 16-9 17-6 14-2 2h-20l-10-3h-5l-3 4-18-3h-24l-15 4-17 8-13 10-10 10-9 14-4 11v14l5 9 10 8 10 5 18 7 10 7 4 5 2 7-1 9-6 11-8 7-5 3-6 1-6-3-2-5v-12l3-9 6-8-1-1h-6l-13 7-9 7-5 8-2 5-1 10 3 11 6 8 9 6 11 3h15l12-3 16-8 12-9 7-7 7-11 2-7v-11l-4-10-9-10-11-8-8-4-17-6-10-6-4-7v-7l5-12 9-12 7-7 13-7h7l5 3-1 5-7 8-15 12-12 9 2 4 9 3 5 1h18l13-5 13-8 12-11 6-11v-2h10l6-2-8 30-5 20-2 17v18l3 16 5 12 9 12 11 8 8 4 11 3h17l11-4 11-7 11-10 6-9v-2l-7-1-17-2-9-4-8-6-6-7-6-12-4-15-1-20 2-19 4-18 3-9 26-7 20-7 18-8 13-8 11-9 4-7-1-5-2-1-23 9-21 7-30 7 7-20 5-18 1-10-4-6-4-3zm223 10-11 4-9 7-8 9-9 14-11 21-8 20-2 1-1-8-5-8-4-3-5 1-16 29-12 18-8 11-7 9-11 12-10 8-8 4h-5l-5-5-4-11 1-4 13-7 11-9 11-11 10-14 8-15 4-15v-8l-4-8-6-4-3-1h-13l-13 4-11 8-11 11-12 18-6 10-7 16-5 14-3 12-1 16 3 14 6 9 6 5 8 4 4 1h20l15-5 12-7 15-14 12-14 6-9 4 15 5 7 10 5 10 2 11-1 11-4 5-5-1-8-1-6v-19l3-23 6-27 7-21 2-4 2-1 3 14 5 5 6 1 7-5 5-9 3-15v-10l-2-11-4-8-3-2zm-632 4-26 26-7 8-13 15-10 15-5 12 1 9 6 8 7 6 9 4h10l6-7 8-11 10-10 15-11 14-8 22-10-7 8-7 7-9 15-6 16v12l3 9 5 5 5 4 5 1 11-12 12-11 17-13 13-9 17-10 3-2-1 5-3 5-11 24-7 20-7 24-2 9v18l4 13 6 10 7 6 11 5 4 1h18l12-3 16-8 5-5v-2l-18-8-9-7-7-11-4-12v-21l3-16 8-22 14-29 4-11-1-8-3-3-9-1-17 4-16 7-14 8-7 5 2-5 3-10v-12l-5-7-10-4h-15l-15 4-18 8-11 6 6-12 1-5v-7l-4-8-5-5-9-6zm202 51-12 3-6 4-12 14-16 24-8 15-6 14-3 14v13l3 8 9 10 13 7 8 2h13l7-3-1-7-2-7v-21l5-22 8-23 8-18 10-18 2-6-9-3zm93 205-156 12-31 3-7 2v16l3 35 2 7h18l39-3h12l3 40 10 129 3 32 2 3h12l53-4 4-2v-13l-5-70-8-99-1-22 57-5 10-2 1-1v-19l-3-34-2-5zm136 5-6 9-13 23-116 203-11 19-1 7 4 3 16 2 30 2h16l5-7 6-12 5-1 75 5 21 2 3 11 4 10 3 2 35 3 13 1h18l3-5-3-10-10-26-11-28-19-49-14-36-11-28-31-80-8-20zm-362 17-174 36-21 5-4 2 1 12 8 38 3 7h8l55-11h4l3 9 11 53 15 72 9 43 5 21 1 1h8l51-10 9-4v-8l-11-55-10-48-14-67-3-15v-7l8-3 42-9 15-4 1-4-5-27-5-22-2-5zm563 8-8 30-9 36-36 142-12 48v10l16 5 41 10h6l5-16 16-62 9-36 3-5 6 1 13 17 28 38 13 18 28 38 9 12 10 14 16 21 7 10h3l4-13 19-74 16-64 17-67 9-36 1-10-4-3-30-8-25-6-5 1-6 21-19 75-6 20-4 4-8-7-13-18-14-19-13-18-15-20-10-14-9-12-26-36-16-21-5-6zm-867 64-18 2-21 5-15 6-19 10-14 10-10 9-12 12-10 14-8 13-8 20-5 21-1 9v24l3 18 7 21 8 16 9 14 12 14 10 9 14 10 19 10 18 6 22 4h29l19-3 20-6 23-11 11-7 14-11 16-16 10-14 8-14 6-14 5-17 2-12 1-11v-13l-2-17-6-21-7-17-9-15-10-13-13-13-15-11-12-7-20-8-16-4-18-2zm1176 33-6 10-12 25-16 33-24 51-8 16-15 31-11 23-16 33-6 14 2 4 23 12 29 14 5 2 5-1 8-14 11-23 12-25 14-29 12-25 15-31 11-23 13-27 11-23 6-14-1-5-10-6-35-17-12-5zm-878 225-6 5-7-1-4-1-2 2 1 14-4 6 2 4h9l5 4 3 4h4l5-11 8-4 1-4-7-5-3-12zm500 0-7 5-12-1-1 4 2 9-4 6 1 5 1 1h9l3 1 2 4 3 3h3l4-9v-2l6-2 4-3-1-4-5-4h-2l-1-10-2-3zm-68 11-8 4-5 6-1 7 4 8 5 5 5 1h20l4 4-1 7-4 3-17 1-1 5 2 3 4 1h8l9-3 8-7 2-5-1-9-4-6-4-3-4-1h-17l-8-1v-8l2-3 7-1 6 1 1-7-2-2zm-370 7-7 7-10 8-14 12-10 8-3 4 4 3 5-1 3-3 6 2 17 9v7l1 3 7 1 3-35 1-25zm31 14-3 5-10 28-7 18 1 2 29 10h4l1-6-4-3-17-6-1-2 13-36 1-8-4-2zm294 0-11 4-8 7-4 8-1 3v13l4 10 6 7 10 5 9 1 10-2 10-6 7-10 1-3v-14l-4-10-8-9-11-4zm-253 14-3 7-11 39-1 7 2 2 6 1 3-8 10-39 1-8zm214 0-34 8-1 3 3 5 16-3 1 8 8 36 1 2 7-1 2-2-6-24-4-21 14-4v-7zm-196 6-8 51 1 4 7 1 2-9 4-25 9 16 6 8 8-6 13-13-2 16-3 18 4 2h5l4-22 5-33-4 1-12 11-15 12-3 1-2-6-8-14-8-13zm65 8-1 35v20l1 1 20 1h16v-7l-1-1-27-1 1-11 23 1v-8h-23v-21h26v-8l-9-1zm86-4-4 1 2 22 1 14-10-9-12-11-11-9-5-4h-2l5 50 1 6h8l1-2-3-30-1-5 8 7 11 10 11 9 8 7 2-2-5-47-2-7z" fill="#BA282D"/>
<path transform="translate(685,1347)" d="m0 0h8l10 4 2 2 6 2 12 9v2l4 2 19 13 6 2 3 2v2l5 1v2l7 2v2l5 2 16 8 13 5v2l7 1 2 1v2l12 3v2l13 3v2l11 2 32 10 10 3v2l8 1 15 2v2l23 2 23 3 33 2h39l33-2 35-5 32-7 31-9 29-10 15-6 44-22h2v-2l14-7 10-7 4-1v-2l11-7 17-12 4-2 12-3h13l23 5 21 6 9 2 24 7 19 5 8 3 25 8 15 5 20 7 29 11 23 9 10 4 30 13 13 6 8 4v2l9 3 5 3 5 2 13 6 11 3h16l16-5 12-7 4-4h2l2-4h2l2-4 8-11 4-10 4-19 1-1 1-8 2-5h1v10l-8 51-4 16-7 14-11 12-9 7-10 5-10 3-7 1h-8l-10-2-12-5-34-16-37-16-30-12-40-15-47-16-43-13-56-15-18-4h-12l-12 6-18 13-15 10-22 13-18 10-23 11-27 11-36 12-27 7-31 6-39 5-13 1-34 1-39-2-32-4-37-7-26-7-36-12-29-12-34-17-17-10-19-12-18-13-13-9-9-4h-11l-39 9-52 14-42 13-36 12-38 14-40 16-30 13-35 16-18 8-11 2h-8l-14-3-14-7-12-11-8-11-7-16-3-15v-11h2l1-2v2l5 1 9 11 1 3h2l5 5 8 5v2l5 1 8 3 8 2h17l13-4 20-9 10-5 15-7 17-7 11-5 23-9 12-5 37-14 47-16 29-9 17-5 21-6 35-9 21-5z" fill="#5B101A"/>
<path transform="translate(959,296)" d="m0 0h20l20 2 16 4 16 8 11 9 7 9 7-1h25l18 4 14 6 11 7 11 9 10 10 10 13 7 12 3 10 4 5v3l-25-5-6-1 2 5 11 27 4 13 2 2-3 5v19l1 4 1 22-1 2-10 2-2 4-2 5 8 6 2 4 5 2 5 6 5 5 7 10v2h2l4 7 6 9 3 8 4 8 3 9v3l9-2 6-4 20-7h6l4 8 1 1v7l-11 6-13 5-8 3-3 1-3 3-5 3-7 2-13 8-5 1-2-9-6-26-3-11-9-16-4-5v-2h-2l-6-8-3-3-1 1v10l-2 17-4 13-5 9-6 7-10 6-7 3-8 15-11 12-7 7-15 9-11 5-12 4-18 3-55 1-12-2v-2l-8-1-3-1-1-2-9-2v-2l-5-1-6-5v-2h-4v-2l-5-2v-3h-3l-1-2-3-1-2-8-3-1-1-3-2-1-3-9-7-2-5-3-1-4h-3l-5-5-2-4h-2l-3-5-2-12 4 1 4 5 11 8 6 3 5 8 6 10 12 13 13 9 11 5 15 4 17 3 12 1h33l14-2 11-2v-2l15-6 14-8 10-9 8-9 9-16 10-10 5-3h2l1-3 3-3h2l2-7 1-4-1-4 2-4-1-19-3-1-7 2-3-6-4-34-3-9-17-2v-1h16l-3-9-4-16-4-13-2-3-3-10-7-11-5-5-1-3-12-3h-30l-5-1h-12l-16 5-10 6-11 8-12 9-10 8-4 3h-2l-2 4-5 4h-2v2l-7 6h-2v2l-11 9-1 2h-3l-1 2-3 1v4l-2 1-11 1-1 1-15 3h-4l-1 24-4 2-8 2-5 6-1 3-1 16h-1l-3-13v-10l-3-10-2-4-1-8-8 13-7 14-3-3v-19l-4-3-5 2v-2l3-2 3-28 6-24 4-12 2-5-5 1-8 4h-3l2-5 9-11 5-6 1-2-16 7-7 3 2-5 13-16 9-11 9-10 17-17 14-11 18-13 21-11 16-6 27-5h3v-2l-10-2-1-2 18-3-5-3-19-8v-2z" fill="#8E5734"/>
<path transform="translate(974,484)" d="m0 0h66l34 2 27 3 3 5 3 22 2 17 3 5 8-2 2 2 1 19-1 4h-2l2 4-1 4-3 7h-2l-1 3-6 5-4 2-9 9-9 16-11 12-9 8-17 9-15 5-14 3h-46l-26-4-12-4-16-8-10-8-10-11-10-18v-2h-2l-4-5h-4l-4-7-1-1h-1v-9l-3-7-5-17v-16l4-3h2v-2h2l2-4 1-6-1-19 2-2 9-2 18-2 20-3z" fill="#ECCDB0"/>
<path transform="translate(462,1104)" d="m0 0h18l14 3 15 8 12 11 10 14 8 17 4 14 1 8v12l-2 12-5 12-7 11-9 10-14 9-12 5-12 3h-22l-14-4-11-6-10-9-7-7-8-13-7-15-4-17v-19l3-13 7-14 8-10 8-7 13-8 13-5z" fill="#BA282D"/>
<path transform="translate(1012,412)" d="m0 0h12l5 1h30l8 2 4 2 7 8 7 11 3 10 4 8 4 15 2 9 3 9-1 1-60-3h-66l-48 4-25 4-18 2-5 2 1 23-4 6h-2v2l-5 4v15l7 23 1 5 1 3 3 7 1 3 5-1 3 4v2h2l11 20 12 13 10 7 18 8 11 3 22 3h46l14-3 4 1-15 4-10 1h-33l-19-2-22-5-12-5-11-7-10-9-10-12-7-13-12-7-9-8-5-7-5-15-2-8v-21l3-6 6-5 9-2 1-22 1-2 12-3 7-1 1-1 13-1-1-5 5-2h3l2-4 5-4h2l1-3h2v-2l7-6h2v-2h2l1-2 5-4 4-4 13-10 12-9 14-10 12-6z" fill="#AA242F"/>
<path transform="translate(1114,420)" d="m0 0 5 2 9 10 8 13 6 12 8 19 1 8h3l1-2 1 15-1 2-10 2-2 4-2 5 8 6 2 4 5 2 5 6 5 5 7 10v2h2l4 7 6 9 3 8 4 8 3 9v3l9-2 6-4 20-7h6l4 8 1 1v7l-11 6-13 5-8 3-3 1-3 3-5 3-7 2-13 8-5 1-2-9-6-26-3-11-9-16-4-5v-2h-2l-6-8-3-3-1 1v10l-2 17-4 13-5 9-6 7-10 6-7 3-8 15-11 12-7 7-15 9-11 5-12 4-18 3-55 1-12-2v-2l-8-1-3-1-1-2-9-2v-2l-5-1-6-5v-2h-4v-2l-5-2v-3h-3l-1-2-3-1-2-8-3-1-1-3-2-1-3-9-7-2-5-3-1-4h-3l-5-5-2-4h-2l-3-5-2-12 4 1 4 5 11 8 6 3 5 8 6 10 12 13 13 9 11 5 15 4 17 3 12 1h33l14-2 11-2v-2l15-6 9-3 11-8 7-6 8-11 8-14 5-3 9-5 8-7 6-12 5-21v-18l-3-7-11-6 2-16 1-7v-36l-3-22-3-11z" fill="#822124"/>
<path transform="translate(959,379)" d="m0 0 7 1-2 6-9 7-4 2v2h-2l-2 4-7 7-10 13-10 15-6 10-6 11-4 17 1 5 2 1 4-8h2l1-4h2l2-5 7-9 3-4h2l2-5 3-4h2l1-4 5-5h2l1-3h2l2-4 3-1 2-4h2l1-3 4-3h2v-2h2v-2h3v-2l9-6 7-4 10-4 13-1 9 3 3 2v2l4 2v2h2v4h2v2h2v3l7-1 2-5 8-7 6-4 7-2h11l10 4 9 6 7 10 8 22 5 24 3 19 1 20 1 3v10l-1 2h-2l-1 4h-2l-4-23-3-6-2-2-3-9-4-16-4-13-2-3-3-10-7-11-5-5-1-3-12-3h-30l-5-1h-12l-16 5-10 6-11 8-12 9-10 8-4 3h-2l-2 4-5 4h-2v2l-7 6h-2v2l-11 9-1 2h-3l-1 2-3 1v4l-2 1-11 1-1 1-15 3h-4l-1 24-4 2-8 2-5 6-1 3-1 16h-1l-3-13v-10l-1-2v-11l2-9h2l2-11 5-14 8-19 7-14h2l1-4 1-2h2l1-4 4-6h2l1-4 5-5 1-2h2l2-4h2v-2l5-4h2v-2l8-6 15-10 15-6z" fill="#623821"/>
<path transform="translate(1208,425)" d="m0 0h17l8 7 10 13 8 14 7 15 7 21 3 21-10-2-30-7-14-2h-25l-11 2-6-2v-2l-9-2-8-3-1-23-1-4v-19l4-7 10-7 14-7 14-4z" fill="#832125"/>
<path transform="translate(614,1152)" d="m0 0 3 4 2 5 4 9 2 16v27l-6 25-5 13-6 12-8 12-8 10-7 8-8 7-10 8-4 5-20 11-16 6-14 4-12 3-19 2-21-1-22-5-21-8-15-8-13-10-11-10-4-6-3-5-3-2-3-5-2-4 4 2 10 9 14 10 19 10 18 6 22 4h29l19-3 20-6 23-11 11-7 14-11 15-15 10-14 8-14 6-14 5-17 2-12 1-11z" fill="#5E141D"/>
<path transform="translate(1705,1119)" d="m0 0h8l6 3v7l-9 20-3 5-2 8-7 15-8 16-12 26-19 38-8 18-3 5h-2l-1 7-8 16-13 28-14 28-2 2h-7l-30-15v-2l-6-2-13-7-5-2-2-2v-7l2-2 4-1 35 17 5 2h4l8-14 11-23 12-25 14-29 12-25 15-31 11-23 13-27 9-19z" fill="#5C121B"/>
<path transform="translate(1020,966)" d="m0 0 8 1 2 2 2 13 1 19v23l-5 3-32 3-30 2 1 21 3 47 3 36 1 20 1 2 4 54v24l-11 3-27 3h-29l-3-5-1-4v-7l3-3 13-2 1-1 38-3 3-1v-13l-5-70-8-99-1-19 1-3 9-2 48-4 10-2z" fill="#5F161D"/>
<path transform="translate(1881,1124)" d="m0 0 2 1 1 5v18l-4 13-6 11-7 8-11 9-13 12-11 9-15 14-8 7-16 15-10 9-12 11-15 15-8 13-4 12-2 9-2 1 1-21 1-17 3-15 5-13 6-9 5-4 7-8 3-3h2v-2h2v-2l16-14 4-4h2l1-3 8-7 7-6 5-5 9-7 5-6 5-2 1-3 8-7 10-9 3-1v-2l8-7 6-6h2v-2l5-4z" fill="#5C121C"/>
<path transform="translate(119,1124)" d="m0 0h2l4 6 10 10 8 6v2l4 2 7 6v2h2v2l5 2 5 5 4 3v2l4 2 17 16 5 4v2l4 2 3 2v2l4 2 14 13 6 5v2l4 2 12 12 6 7 4 7 4 9 2 9 1 9v21l-2 3-8-17-9-10-20-20-8-7-16-15-10-9-12-11-8-7-14-12-10-9-8-7-8-9-7-14-2-7v-21z" fill="#5C131C"/>
<path transform="translate(795,1020)" d="m0 0 1 2 4 2 2 2 2 8 1 10-3 3-6 2-18 3-13 3-9 1v2l-17 2 2 17 3 10 2 17 2 4 5 27 1 9 2 6 2 14 2 5 2 12 3 13 4 15 6 25 4 20v7l-2 3-18 5-40 8h-7l-4-5-5-13v-3l24-5 30-6 8-3v-8l-11-55-10-48-14-67-3-15v-7l5-3 41-9 17-4h3l1-5z" fill="#5F151D"/>
<path transform="translate(1568,1059)" d="m0 0 9 1 2 2v10l-13 52-6 22-5 21-9 36-7 26-7 29-12 48-4 17-2 4h-5l-5-4-2-6-5-7v-2h4l2-9 16-64 21-83 16-63 7-28z" fill="#5D141C"/>
<path transform="translate(959,379)" d="m0 0 7 1-2 6-9 7-4 2v2h-2l-2 4-7 7-10 13-10 15-6 10-6 11h-2l-3 10-3 8-3 10-2 4-10 4-8 1-1 24-4 2-8 2-5 6-1 3-1 16h-1l-3-13v-10l-1-2v-11l2-9h2l2-11 5-14 8-19 7-14h2l1-4 1-2h2l1-4 4-6h2l1-4 5-5 1-2h2l2-4h2v-2l5-4h2v-2l8-6 15-10 15-6z" fill="#623721"/>
<path transform="translate(1067,1198)" d="m0 0 34 2 45 3 19 2 3 3 5 14v3h-18l-57-4-21-2-3 9-4 6-1 4-6 2-26-1-30-2-3-1-1-3v-7l4-7h4v-2h13l15 1h16l5-9 6-10z" fill="#5F141C"/>
<path transform="translate(1130,527)" d="m0 0 5 3 8 8 5 10v2l-4-2-7-7-1 2-1 17-4 20-5 9-7 10-11 7-5 2-3 3-7 14-2 3h-2l-2 4-8 8-15 10-15 7-15 4-17 2h-32l-25-4-16-5-9-4-12-7-7-6-4-5 1-4 7 4 10 6 13 5 26 5 12 1h33l14-2 11-2v-2l15-6 9-3 11-8 7-6 8-11 8-14 5-3 9-5 8-7 6-12 5-21z" fill="#5A121A"/>
<path transform="translate(462,1104)" d="m0 0h18l14 3 15 8 12 11 8 11-1 2-5-3-9-3-4-3-12-3h-27l-16 5-10 5-7 3-7 8-6 7-10 18-2 11v19h-2l-1 7-3-4-5-14-2-10v-19l3-13 7-14 8-10 8-7 13-8 13-5z" fill="#5D141D"/>
<path transform="translate(1368,1137)" d="m0 0 6 1 12 16v3l-7 3-7 26-11 42-6 24-3 13h-2l-1 6-3 4-5 1-21-5-18-5-16-5-1-1v-7l4-5h8l32 8 6 1 4-16 16-62 9-36z" fill="#5D131C"/>
<path transform="translate(1208,425)" d="m0 0h17l8 7 10 13 8 14 7 15 2 7-4-2-1-4-8-7-9-5-17-2h-11l-18 2-19 6-9 4-5 1-1 3h-2l-1 2-2-8v-19l4-7 10-7 14-7 14-4z" fill="#BA2B2F"/>
<path transform="translate(1880,1110)" d="m0 0 2 1v13l-3 5-4 2v2l-8 7-6 6h-2v2l-16 14h-2l-1 3-6 5h-2l-1 3-8 7-8 6-6 7-6 5h-2l-1 3-6 5h-2l-2 4h-2l-1 3-6 5h-2l-2 4h-2v2h-2v2l-8 7-4 5h-2l-1 3h-2l-2 5-4 6-4 11-3 15-1 19-1 18h1l-1 12-8 62-2-2-2 7v6h-2l-1 11-5 17-7 9-5 7-8 7-10 7-12 5-8 2h-16l-13-4-11-5-10-5-7-3-2-2 6 1 15 7 9 4 8 3 7 1h15l10-3 15-8 5-4 5-6h2l2-5 2-9 2-5 2-16 2-5-1-6 4-17v-12l4-11 3-9v-9l3-21 1-5-1-8 1-5 1-1 1-7 3-6 2-16v-2h2v-8h2l1-5 3-7 2-4h2v-3h2v-3h2v-2h2l2-4 12-12 7-6 5-6 6-5h2v-2l4-2 2-3h2l2-4 7-6 5-5 8-7 2-3h3v-3l5-3 8-6 2-3 3-1 2-3 4-2 3-3h2v-2l4-1v-2l4-1 2-5h2l3-5h2l-1-3 3-3 3-10z" fill="#AB2530"/>
<path transform="translate(1155,498)" d="m0 0 8 2 9 3v2l7 1 10-2h7l-4 5-9 2-2 1h-3l-2 2h-1l2 3 1 3 4 2 9 11 6 12 1 10-1 2h2l-1 5v11l-1 1 1 3 7-2 3-2h6l1-2 5-1v3l15 1 1 2-13 3-13 5-6 4-7 2-2-1-3-8-4-11-3-5-2-5-7-11-1-4h-2l-10-15-7-6v-2l-5-2-5-6-5-3-1-2 3-5 4-4z" fill="#AB252F"/>
<path transform="translate(121,1121)" d="m0 0 8 10 5 4v2h2l5 5v2l4 2 21 18v2l4 2 8 7v2l4 2 10 9 12 11 10 9 13 12 8 7 9 9 9 12 5 12 3 15 2 19 1 25 3 17 1 13 3 14 2 20 2 10 2 14 2 6 2 5 3 6v4h2l6 9 9 10 7 6 13 7 10 2h18l19-7 14-7 24-11 10-5 13-5 16-7 17-7 14-5 21-8 20-7 36-12 17-5 18-6 41-11 10-3 9-2 21-5 17-4h7l6 3-3 1-3-1h-8l-15 3-15 4-20 5-15 4-21 6-17 5-29 9-53 18-26 10-16 6-31 13-21 9-15 7-23 11-13 5-7 2h-17l-15-4-6-3v-2l-5-2-8-6v-2h-2l-10-13-6-2h-2v5h-1l-12-84-5-40-1-9 1-5v-19l-2-13-3-11-7-12-7-7v-2l-4-2-7-7-6-5v-2l-4-2-14-13-2-1v-2l-4-2-10-9-7-7-8-7-4-3v-2l-4-2-5-4v-2l-5-2v-2h-2v-2l-4-2-7-6v-2l-4-2-5-4-7-8-5-5-2-5z" fill="#812628"/>
<path transform="translate(1177,733)" d="m0 0h3l1 2 3 1-2 4-9 10-4 4-6 2-19 8-6 1v2l-14 4-11 3h-3l-3 21-3 14-1 9-1 5-2 7v8l1 4-3 1-4-15-1-20 2-19 4-18 3-9 9-3 24-7 21-8 16-8z" fill="#61191F"/>
<path transform="translate(795,1020)" d="m0 0 1 2 4 2 2 2 2 8 1 10-3 3-6 2-18 3-13 3-9 1v2l-15 2-7 3-2 6h-1l-4-20v-7l5-3 41-9 17-4h3l1-5z" fill="#5D131C"/>
<path transform="translate(1044,503)" d="m0 0h11l9 3 7 5 6 12v12l-2 3-3-5-1-1h-5l-2 3 1 6h7l3-2-2 5-5 5-6 4-8 2-10-1-10-5-6-8-2-5-1-10 1-1h12l6-5 1-2v-6l-3-4 1-4z" fill="#8E5733"/>
<path transform="translate(935,503)" d="m0 0 9 2 10 5 6 8 2 5v14l-4-2-2-2h-5l-2 3 1 5 5 1 4-1-2 5-7 6-7 3h-13l-10-5-7-8-2-5-1-11 13-1 4-2 3-4v-7l-3-4 2-4z" fill="#8E5733"/>
<path transform="translate(1320,726)" d="m0 0h2l3 11v11l-8 29-4 17-3 26v9l1 9v10l-6 5-8 3-9 1-10-1-7-3-6-4-2-7 7 1 11 1 11-2 8-4 3-3-1-8-1-6v-19l3-23 6-27 7-21z" fill="#621C20"/>
<path transform="translate(853,859)" d="m0 0 5 1 11 6 8 2h13l8-1v-3l4 1 3 6v7l-2 2h-3v2l-10 1-9-1h-5l-4 2 3 4-1 5-5 7-9 5-12 4-4 1-14 2-6-2v-2l-7-1-5-3-5-7-3-2v-2l7 1 4 1h18l12-3 16-8 4-4 4 1v-2h-2v-3l-4-1-3-3-4-1-4-9z" fill="#AB2831"/>
<path transform="translate(1121,1095)" d="m0 0 5 1 6 12 11 30 1 8-4 3h-10l-25-2-7-2-1-1v-6l17-33 6-9z" fill="#5F161E"/>
<path transform="translate(998,482)" d="m0 0h26l43 2 17 2v1h-10l-34-2h-66l-48 4-25 4-18 2-5 2 1 23-4 6h-2v2l-5 4v15l7 23 1 5 1 3 3 7 1 3 5-1 3 4v2h2l11 20 12 13 10 7 18 8 11 3 22 3h46l14-3 4 1-15 4-10 1h-33l-19-2-22-5-12-5-11-7-10-9-10-12-7-13-12-7-9-8-5-7-5-15-2-8v-21l3-6 6-5 9-2 1-22 1-2 12-3 7-1 1-1 23-2 19-2 28-2z" fill="#8E5733"/>
<path transform="translate(1245,1228)" d="m0 0 5 1 5 8 2 5v10l-5 2-40-1-20-2-6-5-3-5v-8l2-2 40 1h18z" fill="#5B121B"/>
<path transform="translate(1246,818)" d="m0 0 3 1 1 13-4 10-11 13-3 3h-2l-1 3-12 9-12 5-10 3h-15l-12-3-8-5-1-6 1-2 8 2h20l15-5 12-7 15-14 11-13z" fill="#5E161D"/>
<path transform="translate(1181,489)" d="m0 0h30l10 2 16 3 4 1 13 3 2 1h7v2h2l2 5 1 10-10-2-30-7-14-2-18-1h-18l-13-4-6-3-1-3 14-4z" fill="#5D131C"/>
<path transform="translate(750,736)" d="m0 0h2l-2 4-11 11-7 11-4 1-5 2-1 3-5 3-3 4h-2l-1 3-7 5-5 5-6 7-1 3h-2l-2 4-4 3h-11l-6-4-8-7-1-4-3-1v-2l5 2 7 3h10l7-9 8-10 9-9 15-11 14-8z" fill="#5E171D"/>
<path transform="translate(936,822)" d="m0 0 6 2 8 4 18 7 10 7 5 6 2 7-1 9-6 11-9 8-5 3-6 1-6-3-3-6v-10l3-5h3v-2l3-1 1-2h2v-4l6 1-1-5 3-1v-2l-5 1v-3l-9-3-8-4-3-3-3-6-5-5z" fill="#AB2831"/>
<path transform="translate(814,755)" d="m0 0 1 4-4 7-7 14h-5v3l-4 1-6 7h-3v3h-2v2l-8 4-7 6h-2l-1 3-8 7h-2l-2 4-7 5-4-2-5-5-2-4 6-3 7-8 7-7 22-18 16-11 17-10z" fill="#5F161D"/>
<path transform="translate(868,1017)" d="m0 0h10l2 1v21l-33 3h-23l-3-7-1-5v-7h-7v-1l27-3z" fill="#5A101A"/>
<path transform="translate(862,428)" d="m0 0 1 2h2l-1 7-4 13-4 12-3 14-4 27h-3l-8 14-6 12-3-3v-19l-2-1 2-13 3-10 5-12 7-14 12-22 2-3h2z" fill="#623821"/>
<path transform="translate(650,1056)" d="m0 0 5 1 3 9 1 10-5 1-19 5-31 6-4-1-3-6-1-7 3-5 4-1 1-3z" fill="#5D141C"/>
<path transform="translate(1159,1338)" d="m0 0 9 2 5 3 5 8 1 3v12l-6 9-7 4h-13l-5-3-5-5-3-7-1-7 2-8 7-8 5-2z" fill="#BB3032"/>
<path transform="translate(1867,1137)" d="m0 0 2 1-8 8h-2v2l-16 14h-2l-1 3-6 5h-2l-1 3-8 7-8 6-6 7-6 5h-2l-1 3-6 5h-2l-2 4h-2l-1 3-6 5h-2l-2 4h-2v2h-2v2l-8 7-4 5h-2l-1 3h-2l-2 5-4 6-4 11-3 15-1 19-1 18h1l-1 12-8 62-2-2-2 7v6h-2l-1 11-5 17-7 9-5 7-8 7-10 7-12 5-8 2h-16l-13-4-11-5-10-5-7-3-2-2 6 1 15 7 9 4 8 3 7 1h15l10-3 15-8 5-4 5-6h2l2-5 8-17 5-18 2-11 2-13 2-9 4-32 4-28 3-35 2-11 3-8 5-10 7-9h2l2-4 7-7 8-7 10-9 7-7 8-7h2l2-4 6-5h2v-2h2v-2l7-6h2l1-3 7-5 5-5 12-11 10-8z" fill="#802527"/>
<path transform="translate(1090,353)" d="m0 0h12l18 6 11 6 7 4 9 7v2l7 1 7 10 2 2 2 7 4 5v3l-25-5-8-3-11-16-9-10-14-10-12-6z" fill="#623821"/>
<path transform="translate(1024,861)" d="m0 0 2 1 3 9v11l-4 8-8 10-3 3h-2v2l-12 9-14 7-17 3-13-1-10-4-6-5-1-3 4-1 8 2h15l12-3 16-8 12-9 8-9 6-11z" fill="#5E161D"/>
<path transform="translate(857,743)" d="m0 0h6l2 2v9l-5 11-11 24-3 6-2 10-3 9-2 7-2 9-1 16v4h-2l2 7-3-1-5-12-1-4v-21l3-16 8-22 14-29 3-7h2z" fill="#5E141C"/>
<path transform="translate(970,472)" d="m0 0h25l7 1 14 1 8-2 7 1 12 1-1 2 8-1 15 2-1 2 7 4h13l7 3v1l-15-1-25-2-27-1h-26l-31 1-28 2-19 2 3-2 14-2 5-3v-2l6-1v-2l16-2z" fill="#BA272D"/>
<path transform="translate(1240,746)" d="m0 0 3 2v13l-5 12-8 14-10 13-12 13-7 6h-2v2l-4-1v2l-5 1-3 2h-3-1l-3 3-3-9 1-4 14-8 11-9 10-10 10-14 8-15 2-4h3 2v-7z" fill="#5E151D"/>
<path transform="translate(925,756)" d="m0 0h8l1 2-5 9-8 14-2 9-2 4h-2l-1 5-2 6-2 10-6 23-2 7-2 17-4-1-3-9v-21l5-22 8-23 8-18 3-5 5-2z" fill="#5F151D"/>
<path transform="translate(736,1061)" d="m0 0 3 1 2 12 2 9 3 21 2 4 5 27 1 9 2 6 2 14 2 5 2 12 3 13 4 15 6 25 4 20v7l-2 3-18 5h-6l3-2 16-4 4-2v-10l-3-13-3-12-3-6-4-16-2-9-4-16-4-17v-5h-2l-1 4-11-54-7-33v-7l2-5z" fill="#822326"/>
<path transform="translate(1219,444)" d="m0 0 6 1v2l5 2 9 7h2v2l8 4 1 4h2l1-3 7 16-1 2-4-4v-2l-8-7-9-5-17-2h-11l-18 2-19 6-9 4-5 1-1 3h-2l-1 2-2-8v-19l1-3h3l2 8 3 3 5-2v2l9-1 10-1 11-4 12-2 8-7z" fill="#AB2530"/>
<path transform="translate(1114,420)" d="m0 0 5 2 9 10 8 13 6 12 8 19 1 8h3l1-2 1 15-1 2-8-1-5-4-3-9-4-16h-2l-3-8-7-8-2 4h-2l-3-22-3-11z" fill="#613720"/>
<path transform="translate(1232,577)" d="m0 0 4 1 3 8-1 4-22 9-17 9-22 14h-3l-1-2v-10l3-5 6-4h2v-2l12-7 18-8z" fill="#5A0F1A"/>
<path transform="translate(1084,487)" d="m0 0h10l8 1 3 4 3 14 1 12 2-1 1-3 4-2v4l5 2 7 4 3 7v18l-5 21-6 12-10 9-12 6-10 17-9 11-13 10-7 4-3-1 12-7 10-9 8-9 9-16 10-10 5-3h2l1-3 3-3h2l2-7 1-4-1-4 2-4-1-19-3-1-7 2-3-6-4-34-3-9-17-2z" fill="#8E5733"/>
<path transform="translate(1047,771)" d="m0 0h7l2 7-7 14-11 12-11 6-5 3-10 3-9 1-9-1-7-2-3-3-1-5 21-1 13-5 13-8 11-10z" fill="#5E141D"/>
<path transform="translate(993,760)" d="m0 0h7l5 3 1 4-4 6-11 10-20 15-3 12-3 2-1 3-4-5-2-4v-7l5-12 9-12 8-8z" fill="#5F161D"/>
<path transform="translate(922,502)" d="m0 0h5l-1 6 4 5-1 6-5 5h-14v10l3 10 7 8 4 4-6-1-9-6-9-9-6-13v-6l3-11 9-4h2v-2z" fill="#FDFDFD"/>
<path transform="translate(968,300)" d="m0 0h12l15 6 11 7 9 9 4 9v3h-7l-10-5-7-3-9-3-17-4-1-3h-2v-2l4-2h4v-3l-4-1-5-2-1-4z" fill="#623821"/>
<path transform="translate(1152,887)" d="m0 0 5 1v5l-11 11-5 3h-2v2l-8 5-10 4h-13l-16-4-11-8-7-5v-1h5l12 5 5 1h17l11-4 8-5 5-2 6-4 7-1v-2z" fill="#5E151D"/>
<path transform="translate(865,579)" d="m0 0 4 1 4 5 11 8 6 3 5 8 6 10 3 4h-2l4 9 6 8 8 7 14 9 15 6 13 3 17 3 9 1v1l-17 1-10-1-7-1v-2l-8-1-3-1-1-2-9-2v-2l-5-1-6-5v-2h-4v-2l-5-2v-3h-3l-1-2-3-1-2-8-3-1-1-3-2-1-3-9-7-2-5-3-1-4h-3l-5-5-2-4h-2l-3-5-1-6z" fill="#AB252F"/>
<path transform="translate(1012,412)" d="m0 0h12v1l-16 3-16 10-5 4-3 1-5 5-5 4h-2v2l-6 5h-2v2l-4 2-14 14-4 3h-2l-2 4h-2l-2 4h-2v2l-4 3h-2l-1 4-7 3h-8l-1-5 5-2h3l2-4 5-4h2l1-3h2v-2l7-6h2v-2h2l1-2 5-4 4-4 13-10 12-9 14-10 12-6z" fill="#822124"/>
<path transform="translate(686,1345)" d="m0 0h7l6 3-3 1-3-1h-8l-15 3-15 4-20 5-15 4-21 6-17 5-29 9-53 18-26 10-16 6-31 13-21 9-15 7-23 11-13 5-7 2h-17l-8-2v-2l11 1h15l19-7 14-7 24-11 10-5 13-5 16-7 17-7 14-5 21-8 20-7 36-12 17-5 18-6 41-11 10-3 9-2 21-5z" fill="#832125"/>
<path transform="translate(1061,767)" d="m0 0h3l-1 7-2 7-5 2-4 9h-2v2h2l-1 5-5 4-3 3h-3v2h-2v2l-11 5h-2v2l-6 3-21 2-7 1-1-2-14-2v-4l-5 1-3-1v-2h-2l-1 2-1-4 3-1 3-10 11 4 5 1-2 2 2 5 3 2 9 1 5 1 9-1 10-3 9-5 9-6 8-9 7-14-1-6-6-1v-2z" fill="#AB2B33"/>
<path transform="translate(847,500)" d="m0 0h1l2 13 2 3 2 10v8l4 18 1 2v10l-2-2-5-6-2-4-1-5-4-8-2-6h-2l-2-3-3 1-3 7-5 1v-2h-2l-1-18v-14h3l2 4v17l1 2 5-8 7-14z" fill="#AB252F"/>
<path transform="translate(868,382)" d="m0 0 4 1-3 7-12 12-9 15-7 12-6 2v2l-10 5h-3l2-5 9-11 5-6 1-2-2 1h-9l-2-1 1-3 8-7 3-1v-2l5-2 5-4 7-4 3-3 5-3 5-2z" fill="#623821"/>
<path transform="translate(859,885)" d="m0 0h4l2 3 5 1 1 4-5 5-10 5-10 3-9 1h-14l-12-5-4-5-3-2v-2l7 1 4 1h18l12-3z" fill="#5D151C"/>
<path transform="translate(964,691)" d="m0 0 3 3 2 7-1 8-4 6-7 8h-2v2l-10 7-11 4h-7l-1-3 1-8 13-7 9-7 8-9 5-9z" fill="#5D141D"/>
<path transform="translate(1020,966)" d="m0 0 8 1 2 2 2 13 1 19v23l-5 3-32 3-30 2 1 21 3 47 3 36 1 20 1 2 2 27v16h-1l-2-18-3-28-2-10-1-7-1-18-1-9v-25l-1-6-1-15-1-7v-21l2-7 59-5 7-2v-18l-3-35-7-2z" fill="#832125"/>
<path transform="translate(1237,737)" d="m0 0 4 4 3 5 1 5v7l-4 12v7l-1 4-7 11-6 7h-2v3h-2v2h-2l-2 4-7 9-3 1-1 4-5 3-6 3-4 4-1 4h-5l-5-4-1-5 1-5 2 1v2l7-4 4 1v-2l4 1v-2l11-9 11-12 10-14 9-17 2-6v-13h-3l-1 7-2 1-2 3-1-6 2-9z" fill="#AC2832"/>
<path transform="translate(922,493)" d="m0 0h13l9 2 9 5 9 8 2 5-5-2-12-6-12-3h-16l-14 4-9 3-3 9-4-2-3-7 1-4 14-7 9-3z" fill="#652320"/>
<path transform="translate(1052,492)" d="m0 0 17 1 15 4 12 6 2 3-4 11-3 1-3-9-4-3-18-5h-18l-16 5-10 6h-2l2-5 11-9 9-4z" fill="#64221F"/>
<path transform="translate(1880,1110)" d="m0 0 2 1v13l-3 5-4 2v2l-5 4-5 3-13 11-16 14h-2l-1 3-7 5-8 8h-2v2h-2v2l-9 7-5 5-15 14-10 9-14 13-1 2h-2l-2 4-6 8-5 10-1-2 4-9 2-4h2v-3h2v-3h2v-2h2l2-4 12-12 7-6 5-6 6-5h2v-2l4-2 2-3h2l2-4 7-6 5-5 8-7 2-3h3v-3l5-3 8-6 2-3 3-1 2-3 4-2 3-3h2v-2l4-1v-2l4-1 2-5h2l3-5h2l-1-3 3-3 3-10z" fill="#AB2530"/>
<path transform="translate(1867,1137)" d="m0 0 2 1-8 8h-2v2l-16 14h-2l-1 3-6 5h-2l-1 3-8 7-8 6-6 7-6 5h-2l-1 3-6 5h-2l-2 4h-2l-1 3-6 5h-2l-2 4h-2v2h-2v2l-8 7-4 5h-2l-1 3h-2l-2 5-4 6-4 11-3 15-1 19-1 16-1 3h-2l1-23 2-20 2-11 3-8 5-10 7-9h2l2-4 7-7 8-7 10-9 7-7 8-7h2l2-4 6-5h2v-2h2v-2l7-6h2l1-3 7-5 5-5 12-11 10-8z" fill="#832125"/>
<path transform="translate(1058,413)" d="m0 0 9 2 4 2 7 8 7 11 3 10 4 8 4 15 2 9 3 9-5-1-6-7-3-10-5-16-3-9-4-9-6-12-4-6-2-1-9-1z" fill="#832125"/>
<path transform="translate(839,818)" d="m0 0 2 1v7l-1 10 2 4v-6l2-2 2 14 6 9 3 4h-2l1 5 2 7 5 1 3 3 3 1v3h2v2l-3-1v-2l-10-3-11-6-7-6-3-4-1-9h2l-2-4h2l-1-5 1-14 2-6z" fill="#AB2630"/>
<path transform="translate(1137,543)" d="m0 0 7 6 3 4v2h2l7 10 7 13 6 25 3 13 1 8 12-6 7-5 3 1-3 3-7 4-3 1v2l-4 2-7-1-2-8-1-6-4-9-4-20-4-7-1-3 1-3-3-1v-2h-4l-5-10-6 1-2 18-4 14-7 11-9 6-9 4-6 7-3 5-1-2 6-11 14-7 3-1 2-4h2l7-14 3-11 2-17v-10z" fill="#AB2530"/>
<path transform="translate(1568,1059)" d="m0 0 9 1 2 2v10l-13 52-6 22-5 21-9 36-7 26-7 29-12 48-4 17-2 4h-5l-5-4v-5l5 4 1 2 3 1 4-18 5-18 6-26 6-25 5-18 4-18 4-14 28-112 2-7v-7h-9l-6 6 1-7z" fill="#832125"/>
<path transform="translate(1132,1111)" d="m0 0 2 2 9 25 1 8-4 3h-10l-13-1-3-2 4-5 2-1 5-10 1-3h2l1-6z" fill="#BB3536"/>
<path transform="translate(1041,1377)" d="m0 0 4 2 7 7 11 9 13 12v3l-6 1-4-3-12-2-5 3-2 2-1-2-2 3-3-30z" fill="#A92B33"/>
<path transform="translate(1324,745)" d="m0 0 1 3-8 29-4 17-3 26v9l1 9v10l-6 5-8 3-9 1-10-1-7-3-6-4-2-7 7 1 11 1 11-1v2l-5 1h-20v2l5 2 5 3h16l8-2 5-3 2-5-1-5v-49l1-7 4-3 3-10 3-9 3-8z" fill="#832125"/>
<path transform="translate(907,451)" d="m0 0h1v6h-2l-3 10-3 8-3 10-2 4-10 4-8 1 1-8 7-13 6-8 5-5 7-5h2v-2h2z" fill="#832125"/>
<path transform="translate(1208,751)" d="m0 0 5 1 1 5-5 12-8 11-9 10-7 8-4 1 3-10 8-16 9-15 5-6z" fill="#682326"/>
<path transform="translate(1330,1350)" d="m0 0 10 1 18 4 21 6 9 2 24 7 19 5 8 3 25 8 15 5 20 7 29 11 23 9 10 4 30 13 4 3-6-1-9-4-41-17-27-10-10-4-35-12-33-11-21-6-20-6-39-10-24-6z" fill="#832125"/>
<path transform="translate(1023,857)" d="m0 0 3 1 3 7 2 7v8l-4 14-2 1-2 4h-2v3l-6 5-4 4h-2v2l-14 7-7 3-5 3-7 1-7 2-22-4-7-5-3-7-3-4v-2l6 2 1 5 5 4 10 4 13 1 17-3 10-5 8-5 6-5h2v-2l7-6 7-10 2-5v-11l-3-9-2 1z" fill="#AB2530"/>
<path transform="translate(994,1367)" d="m0 0h26l2 1-1 4-4 3-1 4h-2v3l2 1 1 5h-23z" fill="#AC3036"/>
<path transform="translate(925,1371)" d="m0 0 4 4 10 18 3 2 15-14 6-5-1 12-2 12-4-1-10 2v-2l-5 1-2-2v-3h-5v-3l-7 1-3 1-1 8-2 1 1-13z" fill="#AD4345"/>
<path transform="translate(1049,515)" d="m0 0 9 3 5 6 1 7-3 5-5 5-7 1-7-3-3-7 2-7 7-8z" fill="#623821"/>
<path transform="translate(1033,506)" d="m0 0h6l4 5 1 6-3 4-9 1-7 1-1 4 2 12 5 8 2 4 3 1v1l-7-1-5-6-4-8-2-9v-8l2-5 8-7z" fill="#FEFEFE"/>
<path transform="translate(1064,502)" d="m0 0h10l12 4 3 5v15l-4 10-7 10h-3l2-6 2-8-1-9-6-12-8-7z" fill="#FDFBF9"/>
<path transform="translate(1130,384)" d="m0 0h11l13 5 6 3v2h2v2h2l5 7v3l-25-5-8-3-6-9z" fill="#611C21"/>
<path transform="translate(934,517)" d="m0 0 10 3 3 2 2 9-7 9-2 2h-9l-4-4v-2h-2l-1-6 6-9z" fill="#613720"/>
<path transform="translate(611,1139)" d="m0 0 1 4h2l4 7 2 2 2 10 3 7 3 12v13l-2 23-7 26-7 16-12 19-3 4-3 5-4 5-3 3h-2l-1 3-5 4-9 5-4 2 5-5 9-8h2l1-3 6-5 13-17 9-15 6-15 5-18 2-10v-29l-2-14-2-5-3-5-2-5v13h-1l-2-17-1-4z" fill="#832125"/>
<path transform="translate(121,1121)" d="m0 0 8 10 5 4v2h2l5 5v2l4 2 21 18v2l4 2 8 7v2l4 2 10 9 12 11 10 9 13 12 8 7 9 9 9 12 5 12 3 15 1 9-2 2-3-20-3-11-7-12-7-7v-2l-4-2-7-7-6-5v-2l-4-2-14-13-2-1v-2l-4-2-10-9-7-7-8-7-4-3v-2l-4-2-5-4v-2l-5-2v-2h-2v-2l-4-2-7-6v-2l-4-2-5-4-7-8-5-5-2-5z" fill="#822125"/>
<path transform="translate(1351,699)" d="m0 0 3 3 3 24v9l-4 11h-2l-1 4h-2l-1 4-1 1h-7l-4-5 6-8 6-10 2-7h2z" fill="#5D141B"/>
<path transform="translate(844,485)" d="m0 0 4 1v10l-2 7-8 14-6 12-3-3v-17l2-6h2l2-6 5-7 2-2z" fill="#5A0F1A"/>
<path transform="translate(1061,767)" d="m0 0h3l-1 7-2 7-5 2-4 9h-2l-2 5h-2v2h-2l-2 4h-2l-1 3-4 1v2l-16 7-6 2-5 1h-16l-9-2-5-6-1-6h9l-2 2 2 5 3 2 9 1 5 1 9-1 10-3 9-5 9-6 8-9 7-14-1-6-6-1v-2z" fill="#832125"/>
<path transform="translate(1193,1338)" d="m0 0 7 1h20l5 5-1 7-5 4h-18l1-8-1-2-5-1-1-3-3-1z" fill="#AD393B"/>
<path transform="translate(963,687)" d="m0 0 4 4 3 7v10l-5 9-4 5-3 2v4h-3l-1 4-7 6-2 2-1-1-3 3-7 3 1-4-6 1-2 3-4-4-6-1 2-1 2-6-2-1 2-3 3-2 1-2h2v10h7l11-4 8-6h2v-2l6-5 6-9 1-8-3-9h-2z" fill="#A82630"/>
<path transform="translate(982,848)" d="m0 0 2 3 1 9-3 8-6 9-7 6-5 3-6 1-2-2 3-3h2l1-4 3-6 2-1v-4l5-1v-3l5-3-1-5 2-4 4-1z" fill="#BC3234"/>
<path transform="translate(1076,1353)" d="m0 0h4l2 2 2 4 10-2h6l3 12v5l-1-2-7 1-5-5-7-4v-4l-3 1 1 9 2 8-2 5-1 9-2-1-3-30v-6z" fill="#AE383C"/>
<path transform="translate(984,1366)" d="m0 0h1v47l36 2v-5h2l1 7-4 4-8 1h-22l-6-2v-6h-2v-15l1-10z" fill="#BA5652"/>
<path transform="translate(1185,1372)" d="m0 0h2l2 7-4 9-9 5-12 1-12-1-7-4-1-5 12 3 11-1 10-5 3-1 2-4z" fill="#A32931"/>
<path transform="translate(898,864)" d="m0 0 4 4 2 9-2 2-10 1-17-3-7-6v-4l9 1h13l8-1z" fill="#5A0F1A"/>
<path transform="translate(1130,688)" d="m0 0 4 2 4 7v11l-4 13-3 4-9-1 1-7 6-22z" fill="#5F171E"/>
<path transform="translate(260,1286)" d="m0 0h2l1 8 1 25 3 17 1 13 3 14 1 20-1-4h-2l-2-5-8-62-1-9 1-5z" fill="#7B1E23"/>
<path transform="translate(902,618)" d="m0 0 4 2 7 7v5l3 3v2l4 2 9 7 12 6 16 5 20 4 8 1h32l16-1v2l-12 2h-33l-16-2-19-4-12-4-12-6-10-7-8-7-7-9z" fill="#822124"/>
<path transform="translate(788,989)" d="m0 0 3 2v2l4-1 2 4v4l3 1 2 12 2 13 2 11v8h-3l1-2-2-13-2-5-5-4-2 1-5-27z" fill="#842527"/>
<path transform="translate(1134,766)" d="m0 0 4 1-14 4-11 3h-3l-3 21-3 14-1 9-1 5-2 7v8l1 4-3 1-2-9 3-28 1-14 4-1v-8l4-10 15-4z" fill="#822125"/>
<path transform="translate(994,1395)" d="m0 0h22l2 4 2 8h-25l-2-1v-9z" fill="#A92830"/>
<path transform="translate(1150,885)" d="m0 0h7l2 2v6l-12 12-15 11-13 4-6 1-16-3-13-6-5-5-7-6v-3h-2l-1-4 8 5-2 2 11 8 6 4 16 4h13l10-4 6-4h2v-2l9-6 8-8v-5h-6v2l-11 4-3 3-2-1 11-10z" fill="#832125"/>
<path transform="translate(936,822)" d="m0 0 6 2 8 4 18 7 9 6 1 5-9-2-1 2-4-3-6-1v-2h-4l-4-4-3-1-3-5v-2l-7-2z" fill="#822427"/>
<path transform="translate(962,858)" d="m0 0h4l1 4-2 6h-2l-2 6-1 5-3 3-1 2-5-1-2-5v-10l3-5h3v-2z" fill="#832225"/>
<path transform="translate(1159,1338)" d="m0 0 9 2 4 4h-2l-2 4-4-1h-4l-4 1-3 3-3 1-2 3h-6l-1 3-1-1v-6l4-6 6-5z" fill="#A53539"/>
<path transform="translate(875,488)" d="m0 0h2v8l-1 1-1 17-3 4-9 3h-3v-5l5-10 5-12 3-5z" fill="#5A0F1A"/>
<path transform="translate(844,798)" d="m0 0 1 4-4 11-2 9-2 6-1 18v4h-2l2 7-3-1-5-12 1-4 1-19 2-3 3 1 2-5h2l1-7z" fill="#852427"/>
<path transform="translate(1126,1348)" d="m0 0h5l-1 12-3-1-3 3h-2v3l-6 1h-4l-1 2-2-6-1-7 7-3 10-3z" fill="#A82F34"/>
<path transform="translate(786,982)" d="m0 0 6 5 9 1 3 12 3 2v8l-1 4 2 2-2 11-2 4-2-12-2-13-1-5-3-3-1-6-4 1-3-3h-1z" fill="#AB2630"/>
<path transform="translate(861,884)" d="m0 0 9 1 4 5-1 4-4 6-9 5-12 4-4 1-14 2-6-2v-2l-7-1-5-4 5 1 9 2h11l14-2 12-5 6-4 1-6h-5l-2-4z" fill="#AB2530"/>
<path transform="translate(1233,1350)" d="m0 0 2 4-1 9-3 3-7 3-12 2-2-1-1 2-1-2-6-1-1-4 2-2h12l9-3 7-6z" fill="#A9363B"/>
<path transform="translate(727,758)" d="m0 0 3 1 4-1-2 4-4 1-5 2-1 3-5 3-3 4h-2l-1 3-7 5-5 5-6 7-1 3h-2l-2 4-4 3h-11l-6-4-8-7-1-4-3-1v-2l5 2 4 3-2 2 10 7 6 1 5-1 1-3 6-2 2-5h2l2-4 16-15 11-9 3-1z" fill="#832125"/>
<path transform="translate(823,1330)" d="m0 0 2 1-2 25-5-1-12-7 6-7 4-2v-2l5-4z" fill="#AB403F"/>
<path transform="translate(1237,786)" d="m0 0 2 2-10 14-7 9-11 12-11 9-5 3h-3l1-4 5-5 5-2 5-3 1-3 5-4 7-10h2v-2h2v-3l5-4z" fill="#B93C39"/>
<path transform="translate(1246,838)" d="m0 0 1 2-6 8-9 10h-2l-1 3-12 9-12 5-10 3h-15l-12-3-8-5-1-6 1-2 2 1 9 9 4 2 9 1h11l16-5 5-2v-2l10-6 14-14z" fill="#822124"/>
<path transform="translate(1308,829)" d="m0 0h2l1 9v10l-6 5-8 3-9 1-10-1-7-3-6-4-2-7 7 1 11 1 11-1v2l-5 1h-20v2l5 2 5 3h16l8-2 5-3 2-5-1-5v-8z" fill="#832125"/>
<path transform="translate(908,1349)" d="m0 0 2 4 2 7 3 3v5l2-6h1l-1 13-3 19h-1v-17l-7-2h-2l-1-6z" fill="#B14746"/>
<path transform="translate(1023,857)" d="m0 0 3 1 3 7 2 7v8l-4 14-2 1-2 4h-2v3l-6 5-4 4h-2v2l-7 4-8 2-4 2-4-1 10-5 8-5 6-5h2v-2l7-6 7-10 2-5v-11l-3-9-2 1z" fill="#AB2530"/>
<path transform="translate(848,851)" d="m0 0 5 5 2 3h-2l1 5 2 7 5 1 3 3 3 1v3h2v2l-3-1v-2l-10-3-11-6-7-6-1-3 3-1 3 1 1 3 4-1-3-3v-6z" fill="#B83031"/>
<path transform="translate(1310,1353)" d="m0 0 3 1-11 7-18 13-19 12-17 10-16 8-25 12-3-1 44-22h2v-2l14-7 10-7 4-1v-2l11-7 17-12z" fill="#832125"/>
<path transform="translate(1705,1157)" d="m0 0 1 3-7 16-10 19-11 24-19 38-8 18-3 5-1-3 15-31 22-46 9-19 8-16z" fill="#832125"/>
<path transform="translate(1201,1316)" d="m0 0 11 1-1 6v4l4 1 4 2-15 1-8-2-1-2v-6l3-4z" fill="#B5514E"/>
<path transform="translate(611,1139)" d="m0 0 1 4h2l4 7 2 2 2 10 3 7 3 12v13l-1 14h-2l-1-24-2-14-2-5-3-5-2-5v13h-1l-2-17-1-4z" fill="#852A2A"/>
<path transform="translate(805,772)" d="m0 0h2l-2 7-1 1h-5v3l-4 1-6 7h-3v3h-2v2l-8 4-7 6h-2l-1 3-8 7h-2l-2 4-7 5-4-2-3-2 1-2 6 3 8-7 4-2 2-4 8-7 14-12 10-8h2v-2l6-4h2z" fill="#832627"/>
<path transform="translate(1168,753)" d="m0 0 2 2-4 1-2 4-6 5h-5l-9 3-10 2-6 2-7 1-1 1h-6v2h-2l-2 6-1 8h-1v-9l2-7 25-7h3v-2l16-6 10-5z" fill="#A72730"/>
<path transform="translate(925,1371)" d="m0 0 4 4 10 18 1 2h-6v-3l-7 1-3 1-1 8-2 1 1-13z" fill="#AD3A3C"/>
<path transform="translate(726,763)" d="m0 0 2 1-6 10h-3l-1 3h-4l-2 4-2 3-3 1-2 3-4 2-3 1-2 4-3 5-5 5-4 2h-11v-2l11-1 5-4 1-2h2l1-4 8-9h2l1-3 7-5 6-7 5-3z" fill="#AB2530"/>
<path transform="translate(1231,784)" d="m0 0 1 3-7 9-8 11-14 14h-2l-1 3h-2l-1 2-6 2-1 2-5-1v5l-4-4 1-8 2 1v2l7-4 4 1v-2l4 1v-2l11-9 11-12z" fill="#832225"/>
<path transform="translate(1120,457)" d="m0 0 3 2 4 10v7l-1 2h2v5h-2l-2 8-4 1-1-18z" fill="#AB252F"/>
<path transform="translate(1645,1282)" d="m0 0 1 2-7 16-8 16-17 35-4 8-2 2h-7l-30-15 3-1 24 12 5 2 5-1 11-23 9-19 8-16 8-17z" fill="#832125"/>
<path transform="translate(471,1126)" d="m0 0h27l12 3 6 4 10 3 4 2 2 6-5-1v-2h-3l-2-3-4-1-6-4-9-1-6-2-9-1h-12l-10 1-3-2z" fill="#A92530"/>
<path transform="translate(1237,581)" d="m0 0 4 4v7l-11 6-13 5-8 3-3 1-3 3-5 3-3-1 4-5 17-9 22-9z" fill="#A3242E"/>
<path transform="translate(1380,1153)" d="m0 0 4 1 2 3-7 3-7 26-11 42-6 24-3 13h-1l1-9 7-30 9-34 4-17 3-14z" fill="#832125"/>
<path transform="translate(1060,1450)" d="m0 0h17v1l-15 2-33 2h-42l-12-1-1-2h27l4 1h9l19-2h26z" fill="#AB2530"/>
<path transform="translate(690,1343)" d="m0 0 2 2-29 6-17 5-15 3-10 3-28 8h-5l2-2 25-7 23-6 13-4 5-1 7-2 5-1 14-3z" fill="#AB2530"/>
<path transform="translate(839,417)" d="m0 0 5 1-2 10-4 2-3 1v2l-10 5h-3l2-5 9-11z" fill="#6C2C2B"/>
<path transform="translate(1349,1353)" d="m0 0 10 1 25 6 23 6 29 9 10 3 1 2 5 1-3 1-17-5-5-2-22-6-19-6-10-2-18-5-9-2z" fill="#AB2530"/>
<path transform="translate(532,1386)" d="m0 0h5l-2 2-11 4-30 10-18 7-9 3-12 5-10 4-3-1 6-3h2l1-2 10-3 8-4 7-2 8-3 6-1 1-2 27-9z" fill="#AB2530"/>
<path transform="translate(479,1123)" d="m0 0h12l14 2 6 3 7 2 7 5-2 1-9-3-4-3-12-3h-27l-16 5-10 5h-2v-2l17-8 12-3z" fill="#832125"/>
<path transform="translate(1131,1117)" d="m0 0 2 2v8l-2 3h2l-1 4-3 1 2 4h-3v3h-4v2l-8 3-2-1 4-5 2-1 5-10 1-3h2l1-6z" fill="#AB252F"/>
<path transform="translate(1153,858)" d="m0 0 7 3v9l4 2 11 4 5 1h15l13-4 6-3 3 1-5 3-6 1v2l-10 2-6 1h-12l-4-1-2 1-5-2-6-5-6-4-1-3v-3z" fill="#A92731"/>
<path transform="translate(795,728)" d="m0 0h2l2 9 6 1v2h6l-5 4-12 7-5 3 1-5 3-6z" fill="#AB373A"/>
<path transform="translate(1247,1228)" d="m0 0 4 2 6 12v10l-5 2-40-1-20-2-6-5-3-5 1-3 6 9 7 2 33 2h25v-7l-6-12z" fill="#832125"/>
<path transform="translate(1354,705)" d="m0 0 2 4 3 17-1 14-6 12-5 4-7 2-5-3-3-4v-5l9-3-5 7v2l3 1v2l7-1 2-4 2-1 1-3h2l2-8 1-3v-9l-2-16z" fill="#832125"/>
<path transform="translate(738,1095)" d="m0 0h2l3 11 2 10 2 9 3 16v8l-2 2-10-48z" fill="#682426"/>
<path transform="translate(413,1321)" d="m0 0 10 3 16 6 20 5 7 1h26l16-3h5l-4 2-15 3-19 1-20-2-22-6-19-8z" fill="#832125"/>
<path transform="translate(1612,1446)" d="m0 0 6 1 15 7 9 4 8 3 7 1h15l10-3 10-5h2l-1 3-11 5-11 3h-16l-13-4-11-5-10-5-7-3z" fill="#832125"/>
<path transform="translate(1076,1353)" d="m0 0h4l2 2 1 4h-3l1 11 2 8-2 5-1 9-2-1-3-30v-6z" fill="#B54E4A"/>
<path transform="translate(1286,1261)" d="m0 0 6 1 21 6 23 6 7 1 4-2 3-8 1 4-4 9h-10l-9-1-8-3v-2l-9-2-12-3-12-4z" fill="#97232A"/>
<path transform="translate(1135,691)" d="m0 0 4 4v14l-2 10-6 12-9 2h-4l1-5 2-6 1 2 7-1v2h2l2-4 4-13v-11z" fill="#88302F"/>
<path transform="translate(260,1286)" d="m0 0h2l1 8 1 25 1 11h-1l-1 6h-1l-4-30z" fill="#852C2B"/>
<path transform="translate(1677,1172)" d="m0 0h1l-1 7-11 22-1 8-3 5-3 7-4 2-1-3 12-25z" fill="#862F2C"/>
<path transform="translate(1156,895)" d="m0 0 2 2h-2l-2 4-3 1-2 4-3 3-5 1-1 3-9 5-9 3-5 1h-14l-4-2-8-2-6-4 3-1 12 5 15 2 15-4 13-9 12-11z" fill="#AB2530"/>
<path transform="translate(1237,737)" d="m0 0 4 4 3 5 1 5v7l-5 15-7 11-1-2 8-15 2-6v-13h-3l-1 7-2 1-2 3-1-6 2-9z" fill="#822628"/>
<path transform="translate(418,1325)" d="m0 0 5 1 16 6 22 5 21 1 19-2 8-1-3 2-25 4h-10v-2l-4 1-11-1-23-6-14-6z" fill="#AB2530"/>
<path transform="translate(847,500)" d="m0 0h1v6h-2l-1 4-8 13-5 12-3 1-1-2-1-25 2-4 1 5v16l1 2 5-8 7-14z" fill="#832125"/>
<path transform="translate(857,860)" d="m0 0 12 6v5l6 5 17 3 10-1 1-4-3-7v-3l3 3 2 4v7l-5 3h-12l-13-2-9-6-5-5-3-5z" fill="#852728"/>
<path transform="translate(1099,1221)" d="m0 0 29 1 46 3v2l-7 2h-5l-7-2-8-1-23-1-2-1-18-1-5-1z" fill="#AA2530"/>
<path transform="translate(394,1441)" d="m0 0 3 1-25 12-14 6-9 3h-19l-9-2-3-3 21 3 15-2 7-3 2-1 2 1v-2l5-1 1-2 5-2z" fill="#AB2530"/>
<path transform="translate(1105,798)" d="m0 0 2 4-2 10-1 17v13l-1 4-2 4-2-4 1-5-1-6 1-9 1-7 1-1z" fill="#AA2731"/>
<path transform="translate(977,805)" d="m0 0h9l-2 2 2 5 3 2 9 1 10 2v2h-16l-9-2-5-6z" fill="#842427"/>
<path transform="translate(925,725)" d="m0 0h2v10h7l9-2-5 4-10 4-4 2-1-2-6-1 2-1 2-6-2-1 2-3 3-2z" fill="#832225"/>
<path transform="translate(877,589)" d="m0 0 12 6 4 5 3 7-4-1-11-7-5-4-1-4z" fill="#5B141A"/>
<path transform="translate(1287,1247)" d="m0 0h6l-4 1-1 3h-2v9l3 3 16 5 12 3 3 2-4 1-10-3-18-5-4-2-2-5 1-9z" fill="#AB2530"/>
<path transform="translate(986,1415)" d="m0 0h36l-4 4h-29l-3-2z" fill="#7C2323"/>
<path transform="translate(958,862)" d="m0 0h3l1 3-6 8-3 9-3-1-1-3v-10l4-4h5z" fill="#60191E"/>
<path transform="translate(1704,1115)" d="m0 0 8 1 8 4 1 1v7l-5 12-8 16-2 1 1-5 7-14 4-9v-7l-6-2h-7l-4 4z" fill="#832125"/>
<path transform="translate(1568,1059)" d="m0 0 9 1 2 2v10l-9 36h-2l2-13 7-26v-7h-9l-6 6 1-7z" fill="#832125"/>
<path transform="translate(1386,1155)" d="m0 0 5 5 6 8v2l-5-2-4-2-8-2v2h-2l1 3-3 1 1-6 2-5 3-2h4z" fill="#A62E34"/>
<path transform="translate(1321,1347)" d="m0 0h8l6 2v1l-13 1-12 3-11 7-17 12-2-1 3-3 9-6 10-7 12-7z" fill="#9F232C"/>
<path transform="translate(1528,1267)" d="m0 0 1 3-11 43-3 12-1 2h-5l-5-4v-5l5 4 1 2 3 1 4-18 5-18 5-21z" fill="#832125"/>
<path transform="translate(1052,492)" d="m0 0 17 1 15 4 2 2-20-4h-19l-11 4-8 6 3 2-9 5h-2l2-5 11-9 9-4z" fill="#8E5733"/>
<path transform="translate(729,713)" d="m0 0 2 4h2l2 9-12 7h-2l2-5 3-7 2-7z" fill="#601C1F"/>
<path transform="translate(752,1129)" d="m0 0 2 4 4 19 8 40 2 7v5l-2-3-4-18-3-13-1-5-1-1-3-19-1-1z" fill="#AB2530"/>
<path transform="translate(1061,767)" d="m0 0h3l-1 7-2 7-7 2 1-7-2-4-5-1v-2z" fill="#842325"/>
<path transform="translate(941,746)" d="m0 0 3 3-5 5h-3l-1 4-10-2-2 5-4 2-1-2 4-7 4-1 3-1 1-3 3 1v2h2v-2l5-1z" fill="#A6242E"/>
<path transform="translate(1050,794)" d="m0 0h2l-1 5-5 4-3 3h-3v2h-2v2l-11 5h-2v2l-6 3-4-2 4-3 9-4 4-2h3v-2l4-2 5-6h2v-2z" fill="#AB252F"/>
<path transform="translate(1189,724)" d="m0 0h5 3l3 2-13 9-3 2-4-2-1-3z" fill="#A63637"/>
<path transform="translate(822,1021)" d="m0 0 3 1-2 3v9l2 6h17l38-3v2l-33 3h-23l-3-7-1-5v-7h-7v-1z" fill="#832125"/>
<path transform="translate(799,781)" d="m0 0 2 2-3 1-1 5-5 3-6 5h-2v2l-5 2-6 6-4-2 10-8 5-1v-2h2v-3h3l1-3 5-5h4z" fill="#AA242F"/>
<path transform="translate(868,583)" d="m0 0 7 3 2 4-1 2 1 3 13 9 7 4v2l-6-2-6-3-6-4-5-6-2-1-4-8z" fill="#812224"/>
<path transform="translate(803,1355)" d="m0 0 17 8 2 2-1 4v-2h-4v-2h-10l-10-4 3-2h3z" fill="#A94F4D"/>
<path transform="translate(1192,1251)" d="m0 0 20 1 32 1 8 1v1l-23 1h-7l-13-2-13-1z" fill="#AB2530"/>
<path transform="translate(934,907)" d="m0 0 6 2 1 5 5 4 10 4 13 1 17-2-3 2-6 2h-20l-12-5-7-5-4-6z" fill="#832125"/>
<path transform="translate(1048,658)" d="m0 0 3 1-7 3-10 3-15 2h-18l-13-1v-1l33-1 16-3 9-2z" fill="#AB2530"/>
<path transform="translate(1325,740)" d="m0 0 5 4 3 3 1 5 3 4 3 2-7-1-4-4h-4l-2 5-1-4 2-6z" fill="#A72E33"/>
<path transform="translate(1150,885)" d="m0 0h7l2 2v6l-12 12-2-1 11-11v-5h-6v2l-11 4-3 3-2-1 11-10z" fill="#802A27"/>
<path transform="translate(826,504)" d="m0 0 2 2 1 30 5-3-1 5-5 1v-2h-2l-1-18v-14z" fill="#AB2530"/>
<path transform="translate(866,1340)" d="m0 0 2 1v7l-3 5v9l-5 2v3l-3-1 3-10z" fill="#9C3937"/>
<path transform="translate(439,1421)" d="m0 0 3 1-21 9-15 7-9 3 3-3 6-2v-2l24-10z" fill="#AB2530"/>
<path transform="translate(907,818)" d="m0 0 1 4-5 21-2 10-1 9-2-1v-11l2-12z" fill="#832125"/>
<path transform="translate(1263,842)" d="m0 0 7 1 11 1 11-1v2l-5 1h-20v2l5 2 6 4-4 1-9-6z" fill="#844133"/>
<path transform="translate(373,1287)" d="m0 0 7 6 5 5 8 9 18 12 2 2-5-1-12-8-14-12-4-5-5-6z" fill="#832125"/>
<path transform="translate(919,762)" d="m0 0h3l-1 4h-2v4h-2l-1 4-8 16-2-4 8-18 3-5z" fill="#792424"/>
<path transform="translate(772,1230)" d="m0 0h2l5 24v7l-2 3-18 5h-6l3-2 16-4 4-2v-10l-3-13-1-2z" fill="#832125"/>
<path transform="translate(861,884)" d="m0 0 9 1 4 5-1 4-5 5-13 6-4-1 12-5 6-4 1-6h-5l-2-4z" fill="#822125"/>
<path transform="translate(922,726)" d="m0 0 3 1-1 2h-3v4l-2 6 5 2-1 2-13-2 4-2 2-4-3-4v-2z" fill="#AC3938"/>
<path transform="translate(781,1320)" d="m0 0h2l-2 4-2 6-4 4-5 1 1-7 3-5z" fill="#9F383A"/>
<path transform="translate(1026,887)" d="m0 0 1 2-6 9-12 12-10 7-9 4-4-1 10-5 8-5 6-5h2v-2l7-6z" fill="#832125"/>
<path transform="translate(1130,1112)" d="m0 0h2l-1 7-3 8h-2l-1 5-5 9-5 5-2 1 2-5 6-9 8-17z" fill="#832125"/>
<path transform="translate(595,1283)" d="m0 0v3l-5 6-3 3h-2l-1 3-5 4-9 5-4 2 5-5 9-8h2l1-3 11-9z" fill="#A2242D"/>
<path transform="translate(1058,781)" d="m0 0 3 1-4 15-2-2-3 2v-3h-2v-2h2l1-5 3-5z" fill="#AE2F36"/>
<path transform="translate(997,774)" d="m0 0 3 1-9 8-9 7h-2l1-4 4-6h3v-2l5-1v-2z" fill="#944139"/>
<path transform="translate(599,1066)" d="m0 0h4v2l-5 3-1 6 3 10 14-1-3 2-11 1-4-7-3-10v-4z" fill="#842627"/>
<path transform="translate(1880,1110)" d="m0 0 2 1v12l-3 1-7 9-3-1 2-3h2l-1-3 3-3 3-10z" fill="#AA2E33"/>
<path transform="translate(963,687)" d="m0 0 4 4 3 7v10l-5 9-4 5-5 4h-2v2l-4 1 3-4h2v-2l6-5 6-9 1-8-3-9h-2z" fill="#832425"/>
<path transform="translate(910,495)" d="m0 0h5l-2 2-15 5-10 5 3 7 4-3-1 5-1 2-4-2-3-7 1-4 14-7z" fill="#79482A"/>
<path transform="translate(1283,1320)" d="m0 0 1 3-3 4-6 1-1 4h-2v2l-3-1 1-5 2-4 6-3 4 1z" fill="#9D3235"/>
<path transform="translate(1093,1200)" d="m0 0 24 1 29 2v1h-17l-32-1z" fill="#8E6143"/>
<path transform="translate(328,1156)" d="m0 0h2l1 6-2 28h-1l-1-16-1-8v-8z" fill="#B9534F"/>
<path transform="translate(796,738)" d="m0 0 1 4v1h6l-1 3-12 8-1-3 4-8z" fill="#7B2726"/>
<path transform="translate(868,1017)" d="m0 0h10l2 1v2h-40v-1z" fill="#A27657"/>
<path transform="translate(1138,766)" d="m0 0h4v2l-16 4-6 2h-6v2h-2l-2 6-1 8h-1v-9l2-7 25-7z" fill="#AB2530"/>
<path transform="translate(1286,1261)" d="m0 0 6 1 21 6 18 5v1l-11-1-9-3-12-3-12-4z" fill="#832125"/>
<path transform="translate(945,827)" d="m0 0 5 1 18 7 5 4-4 1-5-3-13-5-6-3z" fill="#6B2829"/>
<path transform="translate(1311,805)" d="m0 0h1v20l1 16-1 7h-1l-2-19v-9z" fill="#AB2530"/>
<path transform="translate(968,799)" d="m0 0h2l-2 11-3 2-1 3-3-3 1-9 4-2 2 1z" fill="#832425"/>
<path transform="translate(1677,1172)" d="m0 0h1l-1 7-5 10-10 19-2 1 2-6z" fill="#73462C"/>
<path transform="translate(411,1181)" d="m0 0 2 4v18h-2l-1 7-2-4v-10z" fill="#842225"/>
<path transform="translate(812,903)" d="m0 0 5 1 9 2h11l14-1-3 2-9 2h-15l-9-3z" fill="#832125"/>
<path transform="translate(435,1141)" d="m0 0 2 1-11 11-11 20-2 8h-1l1-9 7-14 7-9z" fill="#832125"/>
<path transform="translate(825,412)" d="m0 0 1 2 8 1-4 3-13 6-1-2 5-7z" fill="#804B30"/>
<path transform="translate(802,1336)" d="m0 0h5l-5 5-11 9-3-1 6-7 5-4z" fill="#B74C4C"/>
<path transform="translate(857,1388)" d="m0 0 11 3 7 2v2l-5 2h-6l-3-4 1-2-5-1z" fill="#A23536"/>
<path transform="translate(856,1367)" d="m0 0 3 1v6l4 4v2l5 2-2 1-12-5-1-2z" fill="#B0514B"/>
<path transform="translate(908,1349)" d="m0 0 2 4 2 7 3 3-1 3-4-1-1 3-3-3v-8z" fill="#AB3738"/>
<path transform="translate(1069,894)" d="m0 0 8 5-2 2 11 8 7 5-3 1-8-4-5-6-5-4v-3h-2z" fill="#893231"/>
<path transform="translate(771,800)" d="m0 0m-1 1m-1 1m-1 1m-1 1m-1 1 1 3-9 8h-2l-2 4-7 5-4-2-3-2 1-2 6 3 8-7 4-2 2-4z" fill="#832125"/>
<path transform="translate(590,1068)" d="m0 0h3l3 11 4 9 1 2-4-1-4-7-2-2v-6l-2-5z" fill="#AA2530"/>
<path transform="translate(1741,1315)" d="m0 0h1l-1 12-3 25h-1v-20l2-14z" fill="#7A4036"/>
<path transform="translate(1642,1458)" d="m0 0h5l6 2 14 1 13-3 3 1-7 3-4 1h-15l-11-2z" fill="#AB2530"/>
<path transform="translate(906,1223)" d="m0 0h5l-2 1v9l3 8 12 1-4 2h-9l-3-3-3-14-1-3z" fill="#97232A"/>
<path transform="translate(1308,850)" d="m0 0 1 3-7 3-4 2-13 1h-5l-5-2-1-2 17 1 9-2z" fill="#AB2530"/>
<path transform="translate(1164,754)" d="m0 0m-1 1m-2 1h2v2l-12 5-1 2 2 1-8 2-6-2 3-2 15-6z" fill="#922229"/>
<path transform="translate(263,1341)" d="m0 0 1 2h2l3 24-1 7h-1l-4-30z" fill="#7E423A"/>
<path transform="translate(413,1200)" d="m0 0 2 1 1 4v3l-1 9 1 4-4-5-2-4 1-9h2z" fill="#A7282F"/>
<path transform="translate(847,500)" d="m0 0h1v6h-2l-1 4-8 13-1 3h-2l3-9 8-14z" fill="#812224"/>
<path transform="translate(1565,1053)" d="m0 0 3 1 4 2 3 1v2l4 1 1 1v11h-1l-1-10-1-1-13-1z" fill="#AA2A32"/>
<path transform="translate(852,524)" d="m0 0h2v10l3 13v5l-4-3-1-5z" fill="#822124"/>
<path transform="translate(1339,743)" d="m0 0 2 1-5 6v2l3 1v2h6v2l-5 1-5-3-3-4v-5z" fill="#832E2B"/>
<path transform="translate(1096,622)" d="m0 0 1 3-3 5h-2l-1 3-6 5-5 5-8 6-3-1 10-7 12-12z" fill="#AB2530"/>
<path transform="translate(583,1370)" d="m0 0h5l-2 2-24 7-9 3-4-1 21-7h4l1-2z" fill="#AB2530"/>
<path transform="translate(1045,1382)" d="m0 0 4 1 8 7-1 3-2-1v-2l-5-1v-2h-4v9h-1v-13z" fill="#87332F"/>
<path transform="translate(940,827)" d="m0 0 4 1 3 5v2l5 1 2 4h4l1 3-4-1-8-4-3-3-3-6z" fill="#AB252F"/>
<path transform="translate(647,1078)" d="m0 0 4 1-6 2-1 2-13 1-8 2h-9v-1l26-5z" fill="#8C2127"/>
<path transform="translate(1568,1059)" d="m0 0 9 1 2 2v10l-2 2v-12h-9l-6 6 1-7z" fill="#7D2A25"/>
<path transform="translate(972,309)" d="m0 0h2v3l-8 2v2l2 1-10-1-4-2v-1l18-3z" fill="#8D5E42"/>
<path transform="translate(925,1371)" d="m0 0 4 4 2 6h-4l-1 9h-1l-1-5v-8z" fill="#9A5850"/>
<path transform="translate(1023,857)" d="m0 0 3 1 3 7 2 7v8l-3 7-1-3 1-2v-11l-3-9-2 1z" fill="#832626"/>
<path transform="translate(814,755)" d="m0 0 1 4-4 7-3 6-2-1 1-4 1-6-2-1z" fill="#7E513B"/>
<path transform="translate(823,1330)" d="m0 0 2 1-1 9-4 4-3-3 2-6z" fill="#AD5147"/>
<path transform="translate(263,1329)" d="m0 0 3 1 1 10 1 14-2-1v-10h-2l-1-2z" fill="#782023"/>
<path transform="translate(960,514)" d="m0 0 4 1 3 6v8l-2 3-5-16z" fill="#FEFEFE"/>
<path transform="translate(823,1343)" d="m0 0 1 3-1 10-5-1-4-2v-2l4-2 2-2 2 1z" fill="#CB9383"/>
<path transform="translate(815,1023)" d="m0 0h5l3 18h-3z" fill="#AA242F"/>
<path transform="translate(849,761)" d="m0 0 2 2-5 13-3 1v-7l4-8z" fill="#802829"/>
<path transform="translate(1183,729)" d="m0 0h5l2 4-6 4-4-2-1-3z" fill="#872B2B"/>
<path transform="translate(1046,1412)" d="m0 0h1v6l-1 1h-7l-3-2v-2l-2-1 11-1z" fill="#9E282D"/>
<path transform="translate(1547,1321)" d="m0 0 6 1 4 3-7-1-1 8-1 2-3-3v-7l2-2z" fill="#7B2B25"/>
<path transform="translate(1428,1216)" d="m0 0h2l1 2 5 3 5 7-1 2-4-1-5-6z" fill="#A53033"/>
<path transform="translate(274,1416)" d="m0 0h2l3 9v6h-2v5h-1l-2-13z" fill="#743430"/>
<path transform="translate(993,1397)" d="m0 0h1l2 7 24 2v1h-25l-2-1z" fill="#CDA687"/>
<path transform="translate(1214,870)" d="m0 0 3 1-5 3-6 1v2l-10 2-6 1-6-1v-1l16-2 12-5z" fill="#AB2530"/>
<path transform="translate(1041,1377)" d="m0 0 4 2 2 3-2 1-1 20h-1z" fill="#CAA893"/>
<path transform="translate(607,1218)" d="m0 0h2l-1 5-3 10-4 5-2 3-1-2 6-13z" fill="#70432A"/>
<path transform="translate(1704,1115)" d="m0 0 8 1 4 4h-11l-4 4z" fill="#852D2B"/>
<path transform="translate(911,1402)" d="m0 0 4 3 5 1 1-2h2v5h-2l-1 2-7-2-2-4z" fill="#AA3137"/>
<path transform="translate(1529,1267)" d="m0 0 1 4-1 4-3 17h-2l-1 6h-1l1-8z" fill="#AB2530"/>
<path transform="translate(1006,1217)" d="m0 0h5v2l-4 1-3 6v9l-2-1-1-16 5 1z" fill="#962329"/>
<path transform="translate(930,764)" d="m0 0 1 2-3 8h-2l-1 8-5 2 1-5 8-14z" fill="#99232B"/>
<path transform="translate(462,1104)" d="m0 0h18v1l-13 1-2 1-16 1 3-2z" fill="#8E5F41"/>
<path transform="translate(870,867)" d="m0 0 7 1h13l6-1-4 4h-15l-7-3z" fill="#74472C"/>
<path transform="translate(1032,499)" d="m0 0 3 1-7 5 3 2-9 5h-2l2-5z" fill="#764329"/>
<path transform="translate(656,790)" d="m0 0h2l4 6 9 7 2 2-3 1-8-5-6-9z" fill="#AA242F"/>
<path transform="translate(1061,767)" d="m0 0h3v5h-7v-2l-6 2-3-1v-2z" fill="#7E3C32"/>
<path transform="translate(1259,839)" d="m0 0 5 2 1 7 9 6-3 2-7-5-5-9z" fill="#A82F34"/>
<path transform="translate(734,716)" d="m0 0h2l2 3 3 1v2l2 1-8 3-2-9z" fill="#AE393B"/>
<path transform="translate(1237,581)" d="m0 0 4 4v5l-12 5-7 3-3-1 19-8z" fill="#832125"/>
<path transform="translate(966,314)" d="m0 0h11l3 3v2l-9-1-5-2z" fill="#5A0F1A"/>
<path transform="translate(863,1353)" d="m0 0h1l1 9-5 2v3l-3-1 3-10 1 2h2z" fill="#A23235"/>
<path transform="translate(1488,1295)" d="m0 0 4 2 6 9 3 2h-5l-5-5v-2h-2z" fill="#A63F3C"/>
<path transform="translate(1067,533)" d="m0 0h6l-1 7h-5l-1-1v-5z" fill="#FDFCFC"/>
<path transform="translate(996,1367)" d="m0 0h9l-2 4-6 2-2-2z" fill="#812024"/>
<path transform="translate(1076,1353)" d="m0 0h4l2 2 1 4h-4-2v10h-1l-1-14z" fill="#C27C6F"/>
<path transform="translate(656,1075)" d="m0 0h4l-1 4-11 3-4-1 7-2v-2z" fill="#A12C32"/>
<path transform="translate(956,852)" d="m0 0 1 2-1 6 2 1h-3v2l-3 1-2 4-1-2 3-9z" fill="#B3564D"/>
<path transform="translate(1172,1384)" d="m0 0h4v2h-2v2h-2v2h-7v-1l-5-1v-1l10-2z" fill="#923F38"/>
<path transform="translate(901,1377)" d="m0 0 2 3v3 7l-5 2 1-8z" fill="#A5403B"/>
<path transform="translate(272,1377)" d="m0 0 2 4 3 10v10l-2 2-2-14z" fill="#AB2530"/>
<path transform="translate(1880,1122)" d="m0 0 2 2-3 5-4 2v2l-6 4 1-4 5-5z" fill="#832225"/>
<path transform="translate(729,713)" d="m0 0 2 4h2l2 9-5-3-3-5z" fill="#832426"/>
<path transform="translate(262,1316)" d="m0 0 2 3 1 11h-1l-1 6h-1l-1-14z" fill="#91453B"/>
<path transform="translate(973,1141)" d="m0 0 2 4 1 9v13h-1l-1-9-1-2z" fill="#AB2530"/>
<path transform="translate(807,992)" d="m0 0h1l1 11v9l-2 5-2-4 1-3z" fill="#C5675A"/>
<path transform="translate(800,890)" d="m0 0 6 2-2 1 7 8 1 2-6-2-6-9z" fill="#84302E"/>
<path transform="translate(1299,1358)" d="m0 0v3l-17 12-2-1 3-3 9-6z" fill="#AB2530"/>
<path transform="translate(1208,751)" d="m0 0 5 1v3l-4-3v3l-6 5-3 1 2-4 4-5z" fill="#794F35"/>
<path transform="translate(1215,1340)" d="m0 0h7l1 5-2 3-1-3-4-1 1-2h-2z" fill="#802224"/>
<path transform="translate(1241,741)" d="m0 0 3 1 3 6v7l-2 7-1-4v-7l-2-7z" fill="#AB2530"/>
<path transform="translate(1090,1358)" d="m0 0h9v2h-2v2l-13-1 1-2z" fill="#943E39"/>
<path transform="translate(455,1131)" d="m0 0 3 1v1l-7 2-4 3-5 2-5 1 4-4 7-3z" fill="#A3242D"/>
<path transform="translate(945,827)" d="m0 0 5 1 10 4-1 2-6-1-8-4z" fill="#733431"/>
<path transform="translate(966,813)" d="m0 0h2v2h8l1 5-6-1-5-3z" fill="#B52C2D"/>
<path transform="translate(1266,506)" d="m0 0h1l1 10-7-1 1-5 4-1z" fill="#7D5137"/>
<path transform="translate(800,1354)" d="m0 0 3 1v4l-10 2-2-2 7-3z" fill="#661B1E"/>
<path transform="translate(1549,1334)" d="m0 0 4 1 18 9-3 1-10-5-7-3v-2z" fill="#8A2127"/>
<path transform="translate(1463,1263)" d="m0 0 5 2 6 9-5-1-4-6 1-2-3-1z" fill="#A13332"/>
<path transform="translate(1444,1234)" d="m0 0 5 5 3 4v2l-4-1-4-4-1-5z" fill="#9E3431"/>
<path transform="translate(1412,1190)" d="m0 0 4 4 3 4-2 4-6-7z" fill="#A93939"/>
<path transform="translate(934,907)" d="m0 0 6 2 1 5 4 5-5-2-6-8z" fill="#832B2B"/>
<path transform="translate(857,743)" d="m0 0h6l2 2v9h-1l-1-8-3-1-1 3-5 1 1-4h2z" fill="#822325"/>
<path transform="translate(725,723)" d="m0 0 1 4h6l-5 4-6 2 2-5z" fill="#96694D"/>
<path transform="translate(1202,605)" d="m0 0h4l-1 4-7 4-3-1 4-5z" fill="#9F232C"/>
<path transform="translate(1204,1364)" d="m0 0h14l-1 2-6 2-7-2z" fill="#7B2724"/>
<path transform="translate(1176,1229)" d="m0 0 6 1 3 2-2 6-1-2h-2v-3l-4-2z" fill="#9D232B"/>
<path transform="translate(1705,1113)" d="m0 0 7 1 8 4v3l-8-4-7-2z" fill="#AC2B33"/>
<path transform="translate(1020,957)" d="m0 0 2 4v4l6 1v1h-6l-2-1v8h-1v-12z" fill="#AB433F"/>
<path transform="translate(1148,882)" d="m0 0h7l3 2-1 2h-7l-4 1 1-4z" fill="#AF3037"/>
<path transform="translate(888,504)" d="m0 0 2 1-2 3 3 6 4-3-1 5-1 2-4-2-3-7 1-4z" fill="#8E5733"/>
<path transform="translate(1068,1369)" d="m0 0h1l2 23-4-3h2l-1-6z" fill="#F3E0CE"/>
<path transform="translate(753,1326)" d="m0 0 6 1 2 4-8-1v-2l-4-1z" fill="#B36A60"/>
<path transform="translate(1545,1319)" d="m0 0 4 2-2 3h-2v7l-2-1-1-7z" fill="#AB3237"/>
<path transform="translate(822,1021)" d="m0 0 3 1-2 3-1 9-2-4v-7h-7v-1z" fill="#893129"/>
<path transform="translate(732,809)" d="m0 0 7 3-2 4 2 3-6-2-1-4z" fill="#AA3436"/>
<path transform="translate(994,1395)" d="m0 0h15v2l-4 2-5-1v-1l-6-1z" fill="#B56F65"/>
<path transform="translate(1203,1317)" d="m0 0 3 1v3h-6l-2 5h-2v-5l5-3z" fill="#7F2926"/>
<path transform="translate(1741,1315)" d="m0 0h1l-1 12-1 8h-1v-17z" fill="#885242"/>
<path transform="translate(1477,1279)" d="m0 0 5 5 4 5-1 2-6-4-2-4z" fill="#9C3A35"/>
<path transform="translate(1077,1219)" d="m0 0 21 1-4 2-14-1-4 3z" fill="#A4242D"/>
<path transform="translate(158,1157)" d="m0 0 5 2 6 5 4 4-1 2-6-4-5-5z" fill="#AB2530"/>
<path transform="translate(655,787)" d="m0 0 5 2 4 3-2 2 3 4-4-2-3-4v-2l-3-1z" fill="#823D31"/>
<path transform="translate(277,1407)" d="m0 0 4 4 2 9 1 4-3-3-2-6-2-5z" fill="#AB2530"/>
<path transform="translate(1521,1298)" d="m0 0 2 4-3 10-2 7h-1l1-10z" fill="#AB2530"/>
<path transform="translate(1287,1247)" d="m0 0h6l-4 1-1 3h-2v10h-2v-12z" fill="#8C2F2E"/>
<path transform="translate(966,1412)" d="m0 0 2 1-1 3-6 1-3-1v-2z" fill="#812A26"/>
<path transform="translate(906,1223)" d="m0 0h5l-2 1v13l-2-3-3-10z" fill="#832125"/>
<path transform="translate(1098,907)" d="m0 0h14l-2 3-11-1z" fill="#7C4D31"/>
<path transform="translate(840,842)" d="m0 0h2v2h3l2 6h-4l-3-6z" fill="#B82B2D"/>
<path transform="translate(760,813)" d="m0 0 1 2-5 5-7 6h-2v-2l8-6z" fill="#AB2530"/>
<path transform="translate(922,754)" d="m0 0 1 2h2l-2 5-4 2-1-2z" fill="#903030"/>
<path transform="translate(1320,726)" d="m0 0h2l1 3-1 3h-2v2l-4 2 3-9z" fill="#81533D"/>
<path transform="translate(954,502)" d="m0 0 5 3 5 6v2l-5-2-2-2v-2l-1-3h-2z" fill="#7E4C2C"/>
<path transform="translate(580,1296)" d="m0 0 2 1-7 7-7 5-2-1z" fill="#832125"/>
<path transform="translate(1456,1250)" d="m0 0 4 4 3 4-1 2-7-5z" fill="#9B3331"/>
<path transform="translate(607,1130)" d="m0 0h2l2 3v5h2l-1 3-2 2-3-10z" fill="#AA3E3C"/>
<path transform="translate(993,760)" d="m0 0h7l1 2-8 2h-6l4-3z" fill="#854634"/>
<path transform="translate(1352,607)" d="m0 0 4 2 7 7v2h-3l-1-3-3-1-1-3-3-1z" fill="#B66F5C"/>
<path transform="translate(896,1397)" d="m0 0h2l-1 4-5 2-4-3 1-2 6 1z" fill="#822B27"/>
<path transform="translate(1150,1340)" d="m0 0h7v2l-6 3h-3z" fill="#82302D"/>
<path transform="translate(1422,1207)" d="m0 0 4 1 4 6-3 1-3-1z" fill="#A63033"/>
<path transform="translate(679,790)" d="m0 0v3l-2 2-7 1-4-2 1-2h10z" fill="#7F5439"/>
<path transform="translate(1135,691)" d="m0 0 4 4v14l-2 4v-16z" fill="#832125"/>
<path transform="translate(875,497)" d="m0 0h1v21l-4 1 2-5z" fill="#693221"/>
<path transform="translate(1139,481)" d="m0 0 2 3 3 5v6l-3-3-2-7z" fill="#5A0F1A"/>
<path transform="translate(1226,1360)" d="m0 0h2l-1 3-5 3-3-1v-3z" fill="#8A3934"/>
<path transform="translate(1271,1326)" d="m0 0 1 2h3l-1 4h-2v2l-3-1 1-5z" fill="#A34A43"/>
<path transform="translate(1536,1168)" d="m0 0 2 4-2 9-3 1z" fill="#7B4F34"/>
<path transform="translate(1245,842)" d="m0 0 1 3-10 11-2-1 9-10z" fill="#AD252F"/>
<path transform="translate(727,758)" d="m0 0 3 1 4-1-2 4-4 1-5 2z" fill="#83322B"/>
<path transform="translate(792,745)" d="m0 0 1 4 3-3v4l-7 4 1-5z" fill="#AE775F"/>
<path transform="translate(750,736)" d="m0 0h2l-2 4-4 3-3-3 2-2z" fill="#A27264"/>
<path transform="translate(953,534)" d="m0 0 4 1 1 2-4 4-2-2z" fill="#FEFEFE"/>
<path transform="translate(1504,1318)" d="m0 0 5 4 2 5-5-2-2-2z" fill="#9A232B"/>
<path transform="translate(735,1080)" d="m0 0 3 3v9l-3-3z" fill="#672226"/>
<path transform="translate(843,832)" d="m0 0h1l1 12h-3v-2l-2-1z" fill="#A9403A"/>
<path transform="translate(826,431)" d="m0 0 1 2 4 2-6 3h-3l2-5z" fill="#C19C80"/>
<path transform="translate(821,415)" d="m0 0h1l1 6-7 3 2-5z" fill="#AA8369"/>
<path transform="translate(948,297)" d="m0 0 8 1 3 1-1 3-10-3z" fill="#F1DAC4"/>
<path transform="translate(1185,1372)" d="m0 0 2 1-2 5-6 4-2-1 3-1 2-4z" fill="#A3594D"/>
<path transform="translate(741,1059)" d="m0 0h5v2l-4 2-3 4-1-5z" fill="#A0232D"/>
<path transform="translate(901,853)" d="m0 0 1 2v10l-4-1v3l-2-1 2-5h1l1-7z" fill="#A73434"/>
<path transform="translate(1057,787)" d="m0 0 2 2-2 8-2-3-1-3z" fill="#BF4541"/>
<path transform="translate(752,735)" d="m0 0" fill="#FEFEFE"/>
</svg>
