<?xml version="1.0" encoding="UTF-8"?>
<svg version="1.1" viewBox="0 0 800 800" width="300" height="300" xmlns="http://www.w3.org/2000/svg">
<path transform="translate(647,94)" d="m0 0h17l3 5v504l-2 4-2 1-10 1h-496l-11-2-8-7-4-6-2-6 1-11 4-8 7-6 8-4 2-27 5-24 5-15 8-18 11-19 10-13 10-12h2l2-4 8-7 14-11 18-11 16-8 24-8 14-3 2-7 3-8 6-8 9-6h2l1-214 3-3 7-2 82-10 196-23zm-8 18-79 9-48 6-21 2 3 2h155l1-5v-14zm-298 36v201l11 7 4 5 4 8 2 9 2 2 24 6 20 8 21 11 165 1 4 2 1 8-2 4-2 1-142 1 6 7 9 10 6 8 2 1 119 1 4 4-1 8-3 3-108 1 9 19 4 7 94 1 4 2 1 2v6l-5 5-88 1 1 8 3 21 2 23 12 6 5 6 3 9v10l1 1h116l1-1v-442l-1-1zm-12 217-7 5-2 4v3h25l-1-5-5-5-3-2zm-11 29-20 3-21 6-16 7-15 8-16 12-10 9-11 11-10 13-9 15-7 14-7 19-5 25-1 11v12l1 1h322l2-1-1-20-4-23-5-17-7-16-10-17-10-13-11-12-13-12-14-10-16-9-14-6-15-5-20-4-8-1zm-164 183-3 1-2 8 3 5 3 1h351l7-1 2-3v-8l-4-3z" fill="#FA9B60"/>
<path transform="translate(433,179)" d="m0 0 5 1 8 7 31 31 7 6 5 7v6l-12 13 1 4 6 5 5 6 7 6 4 4 4-2 22-22-3-10-1-9 2-10 4-10 8-10 9-7 13-5h16l9 3 8 6 6 9 3 8v15l-4 11-6 9-8 8-12 6-8 2h-11l-12-3h-2v2l-8 7-10 10-3 4h-2l1 4 53 53 1 4-3 6-4 3-5-1-9-7-46-46-5 2-50 50-4 2-5-1-5-5v-6l11-12 43-43-2-4-21-21-4 2-11 10-5 1-8-6-44-44-2-4 1-4 5-5 5-1 10 8 32 32 4 1 2-4v-2l-4-2-3-3v-2h-2l-7-8-22-22-3-4v-5l4-5 3-2 5 1 10 9 32 32 4-3-2-5-36-36-3-5 2-6 3-3zm127 28-10 5-7 8-3 9v8l4 8 4 3 7 2 9-1 9-5 7-8 3-8v-9l-4-7-5-4-3-1z" fill="#FA9B60"/>
<path transform="translate(264,655)" d="m0 0 8 1 5 5 5-1 7-4h11l5 3 4 6 1 5v31h-17l-1-1v-31h-8l-2 1-1 30-1 1h-16l-1-1v-31l-10 1-1 2v28l-1 1h-16l-1-1v-44l14 1 2 4 4-2 4-3z" fill="#1858B3"/>
<path transform="translate(127,643)" d="m0 0h23l4 9 12 34 5 13v2h-19l-4-7h-19l-3 7h-19l3-10 13-36zm11 18-3 8-3 11 2 1h7l3-1-1-8-4-11z" fill="#1053B1"/>
<path transform="translate(603,655)" d="m0 0 15 1 8 4 4 4 1 3 1 21 5 6v6l-3 2h-14l-5-4-9 4h-15l-6-4-2-3v-10l4-6 4-3 7-2 16-1-1-5h-10l-7 3h-11l-1-5 4-6 5-3zm5 27-7 2-2 4 2 3 5 1 6-2 2-2v-5l-1-1z" fill="#1858B3"/>
<path transform="translate(490,655)" d="m0 0 13 1 8 3 5 5 1 3 1 22 5 5v6l-3 2h-14l-4-4-5 2-6 2h-15l-5-4-2-4v-9l4-6 8-4 18-2-1-5h-9l-5 3h-13l-1-4 3-5 5-4 5-2zm3 27-7 3v6l2 1 9-1 3-3v-5l-1-1z" fill="#1757B3"/>
<path transform="translate(547,655)" d="m0 0h9l10 3 7 5 4 8-2 4h-14l-4-6-2-1h-7l-4 5-1 7 2 8 4 2h6l4-1 2-5 1-1h13l1 1-1 8-6 7-12 4 5 6-1 7-4 3-10 1-5-2v-4h9l3-3-6-4v-5l-8-1-8-5-4-5-2-6v-12l4-9 7-6z" fill="#1E5DB5"/>
<path transform="translate(341,655)" d="m0 0 12 1 8 5 5 6 2 6v9h-34l3 7 3 2h7l4-3 2-4 3-1 12 2-1 7-6 7-7 3h-20l-7-3-5-4-4-7-1-13 3-9 7-7 7-3zm-1 11-5 3v5h15l1-3-4-4z" fill="#1C5BB4"/>
<path transform="translate(656,656)" d="m0 0h18l10 5 6 9 1 4v11l-5 10-4 4-8 3h-18l-8-4-5-6-3-8v-10l3-8 6-7zm5 11-4 6v12l3 5 2 1h7l4-3 1-4v-10l-2-5-3-2z" fill="#1C5BB4"/>
<path transform="translate(401,656)" d="m0 0h12l8 5 2 8v32h-16l-1-1-1-30-2-1h-8l-1 7-1 25h-16l-1-1v-43h14l2 5 6-4z" fill="#1053B1"/>
<path transform="translate(441,643)" d="m0 0h12l1 1v12l9 1 1 10-1 1h-9v22l9 1 1 1v8l-3 2h-16l-6-3-2-5-1-25-5-2v-9l7-3 2-11z" fill="#1455B2"/>
<path transform="translate(178,640)" d="m0 0h17v61h-16l-1-1z" fill="#0F52B0"/>
<path transform="translate(207,656)" d="m0 0h16l1 5v39l-1 1h-17v-44z" fill="#1C5BB4"/>
<path transform="translate(624,639)" d="m0 0 4 1-2 6-4 5-9 1-8-2-7 1-9 1 2-6 6-6h10l6 2h5l2-2z" fill="#2B65B9"/>
<path transform="translate(206,640)" d="m0 0h17l1 4-1 7h-17z" fill="#1D5BB5"/>
<path transform="translate(542,714)" d="m0 0h7l2 2v3l2 1-10-1-2-4z" fill="#91AFDA"/>
</svg>
