<svg width="180" height="180" viewBox="0 0 180 180" fill="none" xmlns="http://www.w3.org/2000/svg">
<path d="M145.875 0H149.7L150.375 1.125V114.525L149.925 115.425L149.475 115.65L147.225 115.875H35.625L33.15 115.425L31.35 113.85L30.45 112.5L30 111.15L30.225 108.675L31.125 106.875L32.7 105.525L34.5 104.625L34.95 98.55L36.075 93.15L37.2 89.775L39 85.725L41.475 81.45L43.725 78.525L45.975 75.825H46.425L46.875 74.925L48.675 73.35L51.825 70.875L55.875 68.4L59.475 66.6L64.875 64.8L68.025 64.125L68.475 62.55L69.15 60.75L70.5 58.95L72.525 57.6H72.975L73.2 9.45L73.875 8.775L75.45 8.325L93.9 6.075L138 0.9L145.875 0ZM144.075 4.05L126.3 6.075L115.5 7.425L110.775 7.875L111.45 8.325H146.325L146.55 7.2V4.05H144.075ZM77.025 12.15V57.375L79.5 58.95L80.4 60.075L81.3 61.875L81.75 63.9L82.2 64.35L87.6 65.7L92.1 67.5L96.825 69.975L133.95 70.2L134.85 70.65L135.075 72.45L134.625 73.35L134.175 73.575L102.225 73.8L103.575 75.375L105.6 77.625L106.95 79.425L107.4 79.65L134.175 79.875L135.075 80.775L134.85 82.575L134.175 83.25L109.875 83.475L111.9 87.75L112.8 89.325L133.95 89.55L134.85 90L135.075 90.45V91.8L133.95 92.925L114.15 93.15L114.375 94.95L115.05 99.675L115.5 104.85L118.2 106.2L119.325 107.55L120 109.575V111.825L120.225 112.05H146.325L146.55 111.825V12.375L146.325 12.15H77.025ZM74.325 60.975L72.75 62.1L72.3 63V63.675H77.925L77.7 62.55L76.575 61.425L75.9 60.975H74.325ZM71.85 67.5L67.35 68.175L62.625 69.525L59.025 71.1L55.65 72.9L52.05 75.6L49.8 77.625L47.325 80.1L45.075 83.025L43.05 86.4L41.475 89.55L39.9 93.825L38.775 99.45L38.55 101.925V104.625L38.775 104.85H111.225L111.675 104.625L111.45 100.125L110.55 94.95L109.425 91.125L107.85 87.525L105.6 83.7L103.35 80.775L100.875 78.075L97.95 75.375L94.8 73.125L91.2 71.1L88.05 69.75L84.675 68.625L80.175 67.725L78.375 67.5H71.85ZM34.95 108.675L34.275 108.9L33.825 110.7L34.5 111.825L35.175 112.05H114.15L115.725 111.825L116.175 111.15V109.35L115.275 108.675H34.95Z" fill="#FF8A00"/>
<path d="M97.725 19.125L98.85 19.35L100.65 20.925L107.625 27.9L109.2 29.25L110.325 30.825V32.175L107.625 35.1L107.85 36L109.2 37.125L110.325 38.475L111.9 39.825L112.8 40.725L113.7 40.275L118.65 35.325L117.975 33.075L117.75 31.05L118.2 28.8L119.1 26.55L120.9 24.3L122.925 22.725L125.85 21.6H129.45L131.475 22.275L133.275 23.625L134.625 25.65L135.3 27.45V30.825L134.4 33.3L133.05 35.325L131.25 37.125L128.55 38.475L126.75 38.925H124.275L121.575 38.25H121.125V38.7L119.325 40.275L117.075 42.525L116.4 43.425H115.95L116.175 44.325L128.1 56.25L128.325 57.15L127.65 58.5L126.75 59.175L125.625 58.95L123.6 57.375L113.25 47.025L112.125 47.475L100.875 58.725L99.975 59.175L98.85 58.95L97.725 57.825V56.475L100.2 53.775L109.875 44.1L109.425 43.2L104.7 38.475L103.8 38.925L101.325 41.175L100.2 41.4L98.4 40.05L88.5 30.15L88.05 29.25L88.275 28.35L89.4 27.225L90.525 27L92.775 28.8L99.975 36L100.875 36.225L101.325 35.325V34.875L100.425 34.425L99.75 33.75V33.3H99.3L97.725 31.5L92.775 26.55L92.1 25.65V24.525L93 23.4L93.675 22.95L94.8 23.175L97.05 25.2L104.25 32.4L105.15 31.725L104.7 30.6L96.6 22.5L95.925 21.375L96.375 20.025L97.05 19.35L97.725 19.125ZM126.3 25.425L124.05 26.55L122.475 28.35L121.8 30.375V32.175L122.7 33.975L123.6 34.65L125.175 35.1L127.2 34.875L129.225 33.75L130.8 31.95L131.475 30.15V28.125L130.575 26.55L129.45 25.65L128.775 25.425H126.3Z" fill="#FF8A00"/>
<path d="M59.4 147.375L61.2 147.6L62.325 148.725L63.45 148.5L65.025 147.6H67.5L68.625 148.275L69.525 149.625L69.75 150.75V157.725H65.925L65.7 157.5V150.525H63.9L63.45 150.75L63.225 157.5L63 157.725H59.4L59.175 157.5V150.525L56.925 150.75L56.7 151.2V157.5L56.475 157.725H52.875L52.65 157.5V147.6L55.8 147.825L56.25 148.725L57.15 148.275L58.05 147.6L59.4 147.375Z" fill="#001D99"/>
<path d="M28.575 144.675H33.75L34.65 146.7L37.35 154.35L38.475 157.275V157.725H34.2L33.3 156.15H29.025L28.35 157.725H24.075L24.75 155.475L27.675 147.375L28.575 144.675ZM31.05 148.725L30.375 150.525L29.7 153L30.15 153.225H31.725L32.4 153L32.175 151.2L31.275 148.725H31.05Z" fill="#001D99"/>
<path d="M135.675 147.375L139.05 147.6L140.85 148.5L141.75 149.4L141.975 150.075L142.2 154.8L143.325 156.15V157.5L142.65 157.95H139.5L138.375 157.05L136.35 157.95H132.975L131.625 157.05L131.175 156.375V154.125L132.075 152.775L132.975 152.1L134.55 151.65L138.15 151.425L137.925 150.3H135.675L134.1 150.975H131.625L131.4 149.85L132.3 148.5L133.425 147.825L135.675 147.375ZM136.8 153.45L135.225 153.9L134.775 154.8L135.225 155.475L136.35 155.7L137.7 155.25L138.15 154.8V153.675L137.925 153.45H136.8Z" fill="#001D99"/>
<path d="M110.25 147.375L113.175 147.6L114.975 148.275L116.1 149.4L116.325 150.075L116.55 155.025L117.675 156.15V157.5L117 157.95H113.85L112.95 157.05L111.825 157.5L110.475 157.95H107.1L105.975 157.05L105.525 156.15V154.125L106.425 152.775L108.225 151.875L112.275 151.425L112.05 150.3H110.025L108.9 150.975H105.975L105.75 150.075L106.425 148.95L107.55 148.05L108.675 147.6L110.25 147.375ZM110.925 153.45L109.35 154.125V155.475L109.8 155.7L111.825 155.475L112.5 154.8V153.675L112.275 153.45H110.925Z" fill="#001D99"/>
<path d="M123.075 147.375H125.1L127.35 148.05L128.925 149.175L129.825 150.975L129.375 151.875H126.225L125.325 150.525L124.875 150.3H123.3L122.4 151.425L122.175 153L122.625 154.8L123.525 155.25H124.875L125.775 155.025L126.225 153.9L126.45 153.675H129.375L129.6 153.9L129.375 155.7L128.025 157.275L125.325 158.175L126.45 159.525L126.225 161.1L125.325 161.775L123.075 162L121.95 161.55V160.65H123.975L124.65 159.975L123.3 159.075V157.95L121.5 157.725L119.7 156.6L118.8 155.475L118.35 154.125V151.425L119.25 149.4L120.825 148.05L123.075 147.375Z" fill="#001D99"/>
<path d="M76.725 147.375L79.425 147.6L81.225 148.725L82.35 150.075L82.8 151.425V153.45H75.15L75.825 155.025L76.5 155.475H78.075L78.975 154.8L79.425 153.9L80.1 153.675L82.8 154.125L82.575 155.7L81.225 157.275L79.65 157.95H75.15L73.575 157.275L72.45 156.375L71.55 154.8L71.325 151.875L72 149.85L73.575 148.275L75.15 147.6L76.725 147.375ZM76.5 149.85L75.375 150.525V151.65H78.75L78.975 150.975L78.075 150.075L76.5 149.85Z" fill="#001D99"/>
<path d="M147.6 147.6H151.65L153.9 148.725L155.25 150.75L155.475 151.65V154.125L154.35 156.375L153.45 157.275L151.65 157.95H147.6L145.8 157.05L144.675 155.7L144 153.9V151.65L144.675 149.85L146.025 148.275L147.6 147.6ZM148.725 150.075L147.825 151.425V154.125L148.5 155.25L148.95 155.475H150.525L151.425 154.8L151.65 153.9V151.65L151.2 150.525L150.525 150.075H148.725Z" fill="#001D99"/>
<path d="M90.225 147.6H92.925L94.725 148.725L95.175 150.525V157.725H91.575L91.35 157.5L91.125 150.75L90.675 150.525H88.875L88.65 152.1L88.425 157.725H84.825L84.6 157.5V147.825H87.75L88.2 148.95L89.55 148.05L90.225 147.6Z" fill="#001D99"/>
<path d="M99.225 144.675H101.925L102.15 144.9V147.6L104.175 147.825L104.4 150.075L104.175 150.3H102.15V155.25L104.175 155.475L104.4 155.7V157.5L103.725 157.95H100.125L98.775 157.275L98.325 156.15L98.1 150.525L96.975 150.075V148.05L98.55 147.375L99 144.9L99.225 144.675Z" fill="#001D99"/>
<path d="M40.05 144H43.875V157.725H40.275L40.05 157.5V144Z" fill="#001D99"/>
<path d="M46.575 147.6H50.175L50.4 148.725V157.5L50.175 157.725H46.35V147.825L46.575 147.6Z" fill="#001D99"/>
<path d="M140.4 143.775L141.3 144L140.85 145.35L139.95 146.475L137.925 146.7L136.125 146.25L134.55 146.475L132.525 146.7L132.975 145.35L134.325 144H136.575L137.925 144.45H139.05L139.5 144L140.4 143.775Z" fill="#001D99"/>
<path d="M46.35 144H50.175L50.4 144.9L50.175 146.475H46.35V144Z" fill="#001D99"/>
<path d="M121.95 160.65H123.525L123.975 161.1V161.775L124.425 162L122.175 161.775L121.725 160.875L121.95 160.65Z" fill="#001D99"/>
</svg>
