<?xml version="1.0" encoding="UTF-8"?>
<svg version="1.1" viewBox="0 0 1376 1376" width="1280" height="1280" xmlns="http://www.w3.org/2000/svg">
<path transform="translate(471,744)" d="m0 0h44l14 2 10 5 7 7 5 11 1 5 1 78v44l1 23 3 22 6 21 9 19 9 13 11 13 10 9 15 10 14 8 20 8 19 4 9 1h21l19-3 21-7 16-8 12-8 11-9 13-13 10-14 9-16 7-19 5-23 1-13 1-131 4-14 6-10 8-7 12-5 12-2h27l14 2 12 5 7 5 7 10 4 12 1 7v132l-2 23-4 26-4 17-8 24-8 18-10 18-13 19-11 13-9 10-14 14-14 11-12 9-16 10-23 12-23 9-18 5-24 5-15 2-16 1h-19l-23-2-25-5-21-6-25-10-23-12-18-12-13-10-15-13-12-12-18-22-10-15-10-18-8-17-8-23-6-22-4-23-2-22v-143l3-12 4-8 8-7 8-4zm1 31-5 4-1 3-1 48v22h59v-70l-3-5-3-2zm396 1-10 3-3 4-1 5v64h55l1-62-3-8-4-4-5-2zm-402 100v21l2 36 4 30 5 20 7 19 10 21 11 17 10 13 9 10 7 8 11 10 17 13 16 10 23 12 21 8 21 6 25 4 12 1h23l25-3 22-5 24-8 25-12 18-11 17-13 12-11 14-14 11-14 10-15 10-18 8-20 6-22 4-23 3-29 2-26v-15h-56l-1 1-2 51-3 22-6 21-7 16-9 16-9 12-9 10-6 7-2 1v2l-4 2-11 9-16 10-16 8-19 7-17 4-13 2h-34l-25-5-20-7-16-8-16-10-13-11-14-14-10-13-8-13-8-15-8-22-5-22-2-16-2-44-2-1z" fill="#0252BF"/>
<path transform="translate(687,288)" d="m0 0 19 1 14 3 15 6 12 7 10 8 12 12 10 14 8 17 4 15 1 8v10l-2 15-5 16-8 16-10 16-11 13-9 10-1 1 25 5 12 3 17 7 16 10 14 12 11 13 10 17 6 15 4 17 2 19v45l-1 11-4 7-5 3-8 1-135 1-4 2-2 4-1 108-4 7-4 2h-11l-5-3-3-5-2-15-2-92-2-5-4-3-137-1-9-2-5-5-2-6v-62l2-14 6-20 8-16 7-11 12-14 14-11 13-8 16-7 14-4 21-3 9-1v-2l-12-10v-2l-4-2-9-11-7-10-7-14-5-17-1-5v-29l4-18 7-16 7-11 11-13 11-9 14-9 17-7 14-3zm-8 30-13 3-16 8-10 8-7 7-8 13-5 13-2 9v20l3 13 8 16 6 8 5 6 12 9 12 6 16 4h19l15-4 14-7 10-8 7-7 7-11 5-11 3-11 1-8v-10l-3-16-5-12-6-10-9-10-11-8-12-6-9-3-6-1zm-57 190-17 3-16 6-14 9-7 6-9 11-8 14-4 10-3 11-1 8-1 21v16l3 6 3 2 5 1h94l175-1 8-4 2-3 1-5v-32l-3-15-4-12-8-15-11-13-10-8-14-8-18-6-13-2z" fill="#0252BF"/>
<path transform="translate(1e3 212)" d="m0 0h19l16 3 12 5 14 8 11 9 8 8 9 13 5 10 4 14 1 14-3 19-7 19-10 19-10 15-3 5 26 7 16 8 11 7 12 11 9 10 8 13 7 16 4 17 1 16v41l-1 9-4 6-5 2-28 1h-92l-9 2-9 6-8 10-13 18-11 15-13 18-28 38-9 12-10 14-14 19-5 5-7 3-7 1-5-3-3-5-1-4v-9l9-13 14-19 13-18 28-38 13-18 14-19 8-12 2-4-10 1h-79l-17-1-12-6-3-3-2-23v-31l3-18 5-15 9-17 10-13 12-12 15-10 16-7 20-5 7-1v-3l-6-8-8-13-9-17-7-21-2-11v-16l4-16 8-16 8-10 12-12 10-7 16-8 14-4zm2 29-13 3-12 6-10 8-8 9-8 16-3 14v11l4 15 7 12 9 10 10 7 10 5 12 3h16l13-3 12-6 9-7 9-10 6-12 3-10 1-13-2-13-5-13-7-11-8-8-13-8-11-4-6-1zm-44 163-17 2-12 4-11 6-10 8-9 12-6 12-5 16-2 14v19l3 6 5 3h222l9-2 5-5 2-5 1-17-2-14-4-12-7-13-8-10-7-7-14-9-12-5-10-2-10-1z" fill="#0252BF"/>
<path transform="translate(353,212)" d="m0 0h21l16 3 13 5 14 8 11 9v2l4 2 10 13 8 16 4 16v14l-3 16-6 16-8 16-9 14-7 10 3 2 22 6 17 8 13 9 12 11 8 10 8 13 7 17 3 14 1 9v52l-3 6-6 5-3 1-108 1 7 11 16 21 14 19 16 21 24 32 16 21 9 13 1 3v9l-3 7-3 2h-10l-9-3-10-13-14-19-16-21-36-48-14-19-15-20-7-9-9-6-3-1-126-1-7-3-3-4-1-3v-31l2-30 3-17 5-15 6-12 8-11 8-9 12-9 17-9 17-5 15-3h3l-4-8-11-18-8-16-7-20-2-11v-19l4-15 6-12 9-12 11-11 10-7 16-8 14-4zm4 29-13 3-13 7-12 11-7 11-5 12-2 10v11l3 14 7 14 8 10 10 8 14 7 8 2 13 1 16-3 14-7 12-11 6-8 5-10 3-11 1-13-3-16-8-16-9-10-9-7-12-6-13-3zm-43 163-19 3-14 5-12 7-10 9-7 10-7 15-4 18-1 8v17l4 8 4 2h224l9-3 3-3 1-3v-29l-4-16-8-16-6-8-5-5-8-7-14-7-9-3-13-2z" fill="#0252BF"/>
</svg>
