<svg width="180" height="180" viewBox="0 0 180 180" fill="none" xmlns="http://www.w3.org/2000/svg">
<path d="M44.925 55.8H46.725L56.85 58.5L61.125 59.85L61.8 60.525V63.225H64.725L79.575 62.55L88.35 60.3L90.375 60.075H92.85L96.45 60.75L99.825 62.1L104.1 64.35L109.95 67.275L113.55 68.4L118.725 69.3L118.5 68.85V66.375L119.175 65.7L124.8 64.125L132.9 62.1L135.375 61.875L136.275 62.775L137.85 67.5L142.125 82.35L146.85 98.55L147.75 101.925L147.525 103.275L146.175 104.175L134.925 107.1L132 107.775L130.425 107.55L129.3 105.3L128.85 103.5L124.125 104.4L122.325 106.875L120.75 108.225L118.5 109.125L117.375 109.35H115.8L113.325 108.9L111.975 111.6L110.4 113.175L108.15 114.3L107.25 114.525H103.875L101.4 113.85L99.6 116.325L97.8 117.675L95.775 118.35H92.85L90.375 117.45L89.475 117.225L88.125 119.475L86.55 121.05L84.3 122.175L83.4 122.4H80.025L77.775 121.5L74.4 119.475L68.1 115.2L65.4 113.175L62.925 111.15L59.775 108.225L58.2 106.425L55.5 103.275L53.475 100.575L51.225 97.65L50.325 97.875L49.65 98.55L47.625 98.325L37.725 95.625L34.125 94.5L33 93.6V92.025L34.35 87.525L37.05 78.75L39.3 71.775L42 63L44.025 57.15L44.925 55.8ZM47.4 60.525L46.725 62.325L42.225 76.5L38.85 87.3L37.95 90V91.125L40.2 92.025L46.95 93.825L47.625 93.6L48.75 90.45L53.475 75.375L55.5 69.075L57.075 63.9V63L48.075 60.525H47.4ZM89.475 64.35L83.175 65.925L81.15 66.825L79.35 69.075L76.2 73.575L73.275 77.625L71.7 79.875L71.025 81.225L71.25 83.025L72.6 84.6L73.725 85.05H75.75L77.55 83.925L81.15 80.325L83.625 78.525L86.55 77.175L88.575 76.725H93.75L96.9 77.625L100.275 79.65L104.1 82.8L107.25 85.275L110.85 88.2L113.775 90.45L116.925 92.925L121.875 96.975L123.45 99L123.9 99.9L126.825 99.675L127.5 99.45L127.05 96.975L122.55 81.675L120.525 74.7L119.85 73.35H117.15L113.1 72.675L109.275 71.55L102.75 68.4L97.125 65.475L94.65 64.575L93.3 64.35H89.475ZM132 66.6L123.45 68.85L123.225 69.75L124.8 74.925L129.3 90.45L132 99.675L132.9 102.825L134.025 103.05L142.8 100.8L142.575 98.775L138.075 83.475L134.25 70.2L133.125 66.6H132ZM73.95 67.05L62.25 67.5L60.225 67.725L59.325 69.975L56.625 78.75L54.375 85.725L52.575 91.8L53.025 92.925L59.775 101.7L62.475 104.85L65.4 107.775L67.875 109.8L71.25 112.275L79.8 117.9L81.375 118.35L82.95 118.125L84.3 117.45L85.2 116.325L85.65 115.2L85.425 113.85L84.525 112.5L82.05 110.25L80.475 108.9L79.8 107.775L80.25 106.425L80.925 105.75L82.05 105.525L83.4 106.2L86.55 108.9L89.025 110.925L91.95 113.4L93.075 114.075L94.875 114.3L96.225 113.625L97.35 112.5L97.575 110.925L96.675 109.575L94.65 107.55L92.85 105.975L91.275 104.4L91.05 102.825L92.4 101.475L93.975 101.7L97.125 104.4L98.925 105.975L101.625 108.45L103.425 109.8L105 110.475H106.575L108.375 109.35L109.05 108.45L109.275 106.65L108.15 104.85L106.35 103.275L103.425 101.025L102.075 99.45V98.325L102.975 97.2L104.55 96.975L106.575 98.325L109.95 101.025L113.1 103.5L115.125 104.85L115.575 105.075H117.6L119.4 103.95L120.075 102.6L119.85 101.025L118.275 99.225L114.675 96.3L111.525 93.825L107.925 90.9L105.9 89.325L102.525 86.625L99.375 84.15L96.675 82.125L94.425 81L92.4 80.55H89.475L86.55 81.45L84.3 83.025L83.175 83.925L81.6 85.725L79.575 87.525L77.325 88.65L76.65 88.875H72.6L70.575 87.975L68.55 86.175L67.2 83.475V80.325L68.1 78.3L69.675 75.825L72.6 71.775L75.3 67.95L75.525 67.275L75.3 67.05H73.95Z" fill="#FF8A00"/>
<path d="M90.15 0L93.975 0.45L96.675 1.575L98.925 3.15L100.5 4.5L102.525 7.65L103.65 11.025L103.875 14.4L103.425 17.1L102.3 19.8L100.725 22.275L98.925 24.075L103.2 26.325L105.9 28.35L108.15 30.375L110.625 33.525L112.875 37.8L114 41.175V42.525L112.65 44.325L110.85 46.125L107.475 48.6L104.55 50.4L100.275 52.2L95.55 53.325L91.95 53.775H87.675L83.4 53.1L79.575 51.975L75.975 50.4L72.375 48.15L69.9 46.125L67.2 43.425L66.75 42.525V40.95L67.65 38.25L69.45 34.65L71.475 31.725L73.95 29.025L76.2 27.225L79.125 25.425L81.6 24.075L79.575 21.825L78 19.125L77.1 16.425L76.875 15.3V11.925L77.55 9L79.125 5.85L81.6 3.15L83.85 1.575L86.775 0.45L90.15 0ZM89.25 4.275L86.55 4.95L84.525 6.3L82.725 8.1L81.6 10.35L81.15 11.925V15.3L82.05 17.775L83.625 20.025L85.425 21.6L87.45 22.5L88.575 22.725H91.95L94.2 22.05L96.45 20.7L98.025 18.9L99.15 16.65L99.375 15.975V11.475L98.7 9.45L97.125 7.2L95.55 5.85L93.3 4.725L91.275 4.275H89.25ZM88.8 27L84.975 27.675L81.825 28.8L79.125 30.375L76.875 32.175L74.625 34.425L72.375 38.025L71.25 40.5L71.475 41.625L72.6 42.75L74.4 44.325L77.55 46.35L80.925 47.925L85.65 49.275L87.45 49.5H93.075L96.9 48.825L100.275 47.7L103.875 45.9L106.575 44.1L109.05 42.075L109.5 40.95L107.925 37.35L106.125 34.65L103.65 31.95L100.5 29.7L96.675 27.9L92.175 27H88.8Z" fill="#FF8A00"/>
<path d="M75.375 147.375L77.175 147.6L78.525 148.725L79.65 148.275L81 147.6L82.8 147.375L84.375 148.05L85.5 149.4L85.725 150.075V157.725H81.9L81.675 157.5L81.45 150.75L80.1 150.525L79.425 150.975L79.2 152.775V157.5L78.975 157.725H75.375L75.15 157.275L74.925 150.75L73.575 150.525L72.675 150.75V157.5L72.45 157.725H68.85L68.625 157.05V147.825L69.525 147.6L71.775 147.825L72.225 148.725L73.125 148.5L74.25 147.6L75.375 147.375Z" fill="#001D99"/>
<path d="M45.675 144.45H49.275L51.3 145.125L53.1 146.7L53.775 148.275L54 150.075H49.95L49.05 148.275L48.375 147.825H46.8L45.675 148.5L45.225 149.625V152.775L45.9 154.125L47.475 154.8L48.825 154.575L49.725 153.45L50.175 152.325H53.55L54 152.55L53.55 154.8L52.65 156.15L51.075 157.5L49.725 157.95L47.475 158.175L44.325 157.725L42.3 156.375L41.175 154.575L40.725 153V149.175L41.625 146.925L43.2 145.35L44.55 144.675L45.675 144.45Z" fill="#001D99"/>
<path d="M92.925 147.375L95.4 147.6L97.2 148.5L98.55 150.3L99 152.1V153.225L98.775 153.45H91.35L91.8 154.8L92.475 155.475H94.05L95.175 154.35L95.625 153.675L96.975 153.9L98.775 154.125L99 154.8L98.325 156.15L96.75 157.5L95.625 157.95H91.125L89.325 157.05L87.975 155.475L87.525 154.35V150.975L88.425 149.4L90 148.05L91.35 147.6L92.925 147.375ZM92.925 149.85L91.575 150.525L91.35 151.2L91.8 151.65H94.275L94.95 151.425L94.725 150.525L94.275 150.075L92.925 149.85Z" fill="#001D99"/>
<path d="M59.175 147.6H63.225L65.025 148.5L66.375 150.075L66.825 151.2V154.575L65.7 156.375L64.35 157.5L63 157.95L61.2 158.175L58.275 157.725L56.475 156.375L55.575 154.575L55.35 152.1L56.025 149.85L57.15 148.5L59.175 147.6ZM60.3 150.075L59.625 150.75L59.4 151.2V154.575L60.3 155.475H61.875L63 154.575V151.2L61.875 150.075H60.3Z" fill="#001D99"/>
<path d="M131.625 147.6H135.675L137.925 148.725L139.05 150.3L139.5 152.1V153.675L138.825 155.7L137.7 157.05L135.45 157.95H131.625L129.825 157.05L128.475 155.475L128.025 154.125V151.2L128.925 149.4L130.5 148.05L131.625 147.6ZM132.75 150.075L131.85 151.425V154.35L132.75 155.475H134.775L135.45 154.575L135.675 152.1L135.225 150.525L134.55 150.075H132.75Z" fill="#001D99"/>
<path d="M113.85 147.375L116.55 147.6L118.575 148.5L119.7 149.85L120.15 150.75V151.875H116.55L115.875 150.75V150.3H113.175L112.725 152.1V153.675L113.175 154.8L113.85 155.25H115.425L117 153.675H119.925L120.15 154.8L119.025 156.6L117.9 157.5L116.55 157.95H112.5L110.925 157.275L109.8 156.375L108.9 154.575L108.675 152.1L109.35 150.075L110.25 148.725L112.5 147.6L113.85 147.375Z" fill="#001D99"/>
<path d="M106.2 147.375H107.775L108 147.6V150.75L107.55 150.975L105.075 151.2L104.85 152.325L104.625 157.5L104.4 157.725H100.8L100.575 156.6L100.8 147.6H102.6L103.95 148.05L104.625 148.5L105.525 147.6L106.2 147.375Z" fill="#001D99"/>
<path d="M122.175 147.6H125.775L126 147.825V157.725H122.175V147.6Z" fill="#001D99"/>
<path d="M122.175 144H126V146.475H122.175V144Z" fill="#001D99"/>
<path d="M92.925 144H96.525L96.075 144.9L94.275 146.25L92.475 146.7H91.575L91.8 145.575L92.925 144Z" fill="#001D99"/>
</svg>
