<?xml version="1.0" encoding="UTF-8"?>
<svg version="1.1" viewBox="0 0 800 800" width="1280" height="1280" xmlns="http://www.w3.org/2000/svg">
<path transform="translate(197,335)" d="m0 0h8l45 12 19 6 3 3v12h13l66-3 39-10 9-1h11l16 3 15 6 19 10 26 13 16 5 23 4-1-2v-11l3-3 25-7 36-9 11-1 4 4 7 21 19 66 21 72 4 15-1 6-6 4-50 13-13 3-7-1-5-10-2-8-21 4-8 11-7 6-10 4-5 1h-7l-11-2-6 12-7 7-10 5-4 1h-15l-11-3-8 11-8 6-9 3h-13l-11-4-4-1-6 10-7 7-10 5-4 1h-15l-10-4-15-9-28-19-12-9-11-9-14-13-7-8-12-14-9-12-10-13-4 1-3 3-9-1-44-12-16-5-5-4v-7l6-20 12-39 10-31 12-39 9-26zm11 21-3 8-20 63-15 48-4 12v5l10 4 30 8 3-1 5-14 21-67 9-28 7-23v-4l-40-11zm187 17-28 7-9 4-8 10-14 20-13 18-7 10-3 6 1 8 6 7 5 2h9l8-5 16-16 11-8 13-6 9-2h23l14 4 15 9 17 14 14 11 16 13 13 10 14 11 22 18 7 9 2 4 13-1 3-1-2-11-20-68-9-31-3-6h-12l-18-3-17-5-29-14-25-13-11-4-6-1zm189 10-38 10-1 4 7 23 20 69 12 41 4 14 5 1 39-10-1-9-20-68-17-59-5-16zm-258 2-52 2-9 1-4 10-12 39-10 31-8 27 2 5 30 39 12 14 13 13 11 9 15 11 38 25 7 2 7-1 6-3 4-5 2-5-1-6-4-6-11-10-7-6-3-5 2-6 3-3 5-1 6 3 14 12 11 9 13 11 5 3 8 1 6-3 5-5 1-7-4-6-9-9-8-7-7-7-1-7 6-6 7 1 14 12 8 7 12 11 8 6 7 3h7l8-5 3-4 1-8-5-8-8-7-13-10-6-7v-5l4-5 7-1 9 6 15 12 14 11 9 6 2 1h9l8-5 3-6-1-7-7-8-16-13-14-11-16-13-9-7-15-12-14-11-12-9-10-5-9-2h-13l-13 4-10 7-5 4-7 8-9 8-10 5-3 1h-18l-9-4-9-8-6-12v-14l4-9 7-11 13-18 12-17 1-3-1-1z" fill="#FD9E64"/>
<path transform="translate(398,87)" d="m0 0 17 2 12 5 10 7 7 6 9 14 5 15 1 15-2 12-5 12-7 11-8 8 19 10 12 9 10 9 11 14 10 19 5 15v6l-6 8-8 8-15 11-13 8-19 8-21 5-16 2h-19l-19-3-17-5-16-7-16-10-11-9-12-12-2-4v-7l4-12 8-16 9-13 11-12 10-8 13-8 11-6-9-10-7-12-4-12-1-5v-15l3-13 7-14 11-12 10-7 13-5zm-4 19-12 3-9 6-8 8-5 10-2 7v15l4 11 7 10 8 7 9 4 5 1h15l10-3 10-6 7-8 5-10 1-3v-20l-3-9-7-10-7-6-10-5-9-2zm-2 101-17 3-14 5-12 7-10 8-10 10-10 16-5 11 1 5 5 5 8 7 14 9 15 7 21 6 8 1h25l17-3 15-5 16-8 12-8 11-9 2-5-7-16-8-12-11-12-14-10-17-8-20-4z" fill="#FD9F64"/>
<path transform="translate(335,655)" d="m0 0 8 1 6 5 5-2 6-3 8-1 7 3 5 6 1 3v34h-17l-1-1-1-30-6-1-3 2-1 8v21l-1 1h-16l-1-2-1-29-6-1-4 1v30l-1 1h-16l-1-3v-41l4-1 10 1 2 4 4-1 5-4z" fill="#195AB6"/>
<path transform="translate(203,642)" d="m0 0h16l9 3 8 7 3 7 1 8h-18l-4-8-3-2h-7l-5 3-2 5v14l3 6 7 3 6-1 4-5 2-5h15l2 1-2 10-4 6-7 6-6 2-10 1-14-2-9-6-5-8-2-7v-17l4-10 7-7 6-3z" fill="#1254B4"/>
<path transform="translate(413,655)" d="m0 0 11 1 8 4 6 8 2 8v5l-1 1h-33l2 6 3 3h7l5-5 2-3 6 1 8 1 1 3-3 6-7 6-5 2h-20l-8-4-6-7-2-5v-15l4-7 7-6 6-2zm0 11-6 3-1 3 2 2h11l3-1-1-4-2-2z" fill="#1758B5"/>
<path transform="translate(263,656)" d="m0 0h18l8 4 6 7 2 5v15l-5 8-6 5-6 2-8 1-13-2-8-6-4-8-1-11 3-10 5-6zm5 11-3 3-1 2v15l4 4h7l5-4v-15l-5-5z" fill="#1557B5"/>
<path transform="translate(585,656)" d="m0 0h18l10 5 5 7 2 8v7l-3 9-5 6-10 4h-17l-8-4-6-7-2-6v-13l4-8 7-6zm5 11-4 6v13l4 5h9l3-4 1-11-2-7-3-2z" fill="#1658B5"/>
<path transform="translate(506,655)" d="m0 0 12 1 9 4 5 6 2 4v5h-16l-3-5v-2h-12l-2 8v7l2 5 3 2h7l7-7h13l1 5-5 8-5 4-6 2h-18l-7-3-5-4-4-8-1-11 3-9 4-6 10-5z" fill="#1657B5"/>
<path transform="translate(472,655)" d="m0 0h7l1 1v14l-2 1-11 1-1 5-1 23-1 1h-16l-1-5 1-40h8l6 2 3 2 4-4z" fill="#0D51B2"/>
<path transform="translate(543,656)" d="m0 0h16l1 1v44h-17z" fill="#1054B4"/>
<path transform="translate(543,640)" d="m0 0h17v11h-17z" fill="#0D51B3"/>
<path transform="translate(413,640)" d="m0 0h16l-2 4-8 6-8 2h-4l1-5z" fill="#2460B7"/>
</svg>
