<svg width="180" height="180" viewBox="0 0 180 180" fill="none" xmlns="http://www.w3.org/2000/svg">
<path d="M39.55 16.2H52.825L53.95 17.325L54.175 17.775L54.4 19.8L55.975 56.475V58.275H63.85L64.975 34.425L65.65 20.925L65.875 17.775L66.775 16.65L67.675 16.2H80.725L81.85 17.1L82.3 18.675L83.875 56.025L84.1 58.05L89.05 58.275V43.875L89.5 42.75L92.65 41.175L100.075 38.475L115.825 32.625L122.575 30.15L131.575 26.775L134.95 25.65H136.525L137.875 26.55L138.1 27.9V35.775L141.925 34.425L146.65 32.625H148L149.35 33.525L149.575 33.975V117.675L148.675 118.575L143.5 118.8H33.475L31.9 118.575L31.225 117.675L31 116.775V59.85L31.9 58.5L32.8 58.275H35.95L36.175 52.875L37.525 25.2L37.975 17.775L38.65 16.65L39.55 16.2ZM42.925 20.7L42.475 20.925L42.25 25.425L42.925 25.65H49.675L49.9 25.2L49.675 20.925L42.925 20.7ZM70.375 20.925L70.15 25.2L71.5 25.65H77.35L77.8 25.2L77.575 20.925H70.375ZM42.025 30.15L41.8 31.95V37.125H50.35V34.425L50.125 30.15H42.025ZM69.925 30.15L69.7 32.85V37.125H78.25V34.425L78.025 30.375L77.8 30.15H69.925ZM133.15 31.275L127.3 33.3L114.475 38.025L103.45 42.075L96.7 44.55L93.775 45.675V58.05L94 58.275H102.775L103 58.05L103.225 55.8L103.45 50.175L104.35 49.275L114.025 45.45L125.05 41.175L132.475 38.25L133.375 37.8V31.275H133.15ZM144.175 38.475L134.95 42.075L122.125 47.025L111.775 51.075L108.175 52.425L107.725 52.875L107.5 61.425L106.375 62.55L35.725 62.775L35.5 63.225L35.725 104.85L35.95 105.075H109.3L109.975 104.85L110.2 78.075L110.425 66.6L111.325 65.7L112 65.475H138.1L139.675 65.925L140.125 67.275L140.35 105.075H144.625L144.85 104.85L145.075 56.925V38.475H144.175ZM42.025 41.625L41.35 41.85L40.675 56.025V58.05L40.9 58.275H51.25V54.45L50.8 43.65L50.575 41.85L47.65 41.625H42.025ZM71.05 41.625L69.475 41.85L69.25 42.525L68.575 57.825L69.025 58.275H79.15V53.775L78.7 43.425L78.475 41.85L77.575 41.625H71.05ZM114.925 69.75L114.7 69.975V104.85L114.925 105.075H135.625V69.75H114.925ZM35.725 109.35L35.5 109.575V113.625L35.95 114.3H144.175L145.075 114.075V109.575L140.35 109.35H35.725Z" fill="#FF8A00"/>
<path d="M42.025 86.175H57.1L58 86.625V87.075H58.45L58.9 87.975V98.55L57.55 100.125H41.35L40.45 99L40.225 98.325V87.975L41.575 86.4L42.025 86.175ZM44.95 90.9V95.625H53.95L54.175 95.4V90.9H44.95Z" fill="#FF8A00"/>
<path d="M88.6 86.175H103.675L105.025 87.075L105.475 87.975V97.875L105.025 99.225L104.125 100.125H88.15L87.025 99L86.8 98.325V87.75L88.6 86.175ZM91.525 90.9V95.625H100.525L100.75 95.4V90.9H91.525Z" fill="#FF8A00"/>
<path d="M65.65 86.175H80.275L81.4 86.85L82.075 87.75L82.3 94.05L82.075 98.55L81.175 99.9L80.95 100.125H64.75L63.85 99.225L63.4 97.875V87.975L64.975 86.4L65.65 86.175ZM68.125 90.9V95.175L68.35 95.625H77.35L77.575 94.275V90.9H68.125Z" fill="#FF8A00"/>
<path d="M46.75 67.5H54.175L57.55 67.725L58.9 69.3V79.875L57.775 81.225L57.325 81.45H41.575L40.45 80.325L40.225 79.875V69.3L41.35 67.95L41.8 67.725L46.75 67.5ZM44.95 72.225V76.95H54.175V72.225H44.95Z" fill="#FF8A00"/>
<path d="M89.275 67.5L104.125 67.725L105.25 68.85L105.475 70.2V78.975L105.025 80.55L104.35 81.225L103.675 81.45H88.15L86.8 79.875V69.3L87.925 67.95L89.275 67.5ZM91.525 72.225V76.95H100.75V72.225H91.525Z" fill="#FF8A00"/>
<path d="M65.2 67.725H80.725L82.075 69.075V80.1L80.95 81.225L80.5 81.45H64.975L63.85 80.325L63.4 79.425V69.75L64.075 68.625L65.2 67.725ZM68.125 72.225V76.95H77.35L77.575 76.725V72.225H68.125Z" fill="#FF8A00"/>
<path d="M71.1 144H74.7L74.925 144.225V157.5L74.7 157.725H72L71.55 157.05L70.65 157.275L69.075 157.95H66.825L65.25 157.05L64.125 154.8V150.525L64.8 149.175L65.925 148.05L66.825 147.6H69.3L71.1 148.275V144ZM68.625 150.3L67.95 150.975L67.725 151.65V154.125L68.4 155.25L69.525 155.475L70.875 154.575L71.1 154.125V151.65L70.425 150.525L68.625 150.3Z" fill="#001D99"/>
<path d="M128.025 147.6H132.525L134.1 148.275L135.225 149.4L135.45 150.075L135.675 154.8L136.8 156.15V157.5L135.9 157.95H133.425L132.3 157.275H131.4L129.6 157.95H126.45L124.875 156.6L124.65 155.925V154.125L126.225 152.325L127.125 151.875L128.475 151.65H131.625L131.4 150.075L129.375 150.3L128.475 150.75L127.125 150.975H124.875L125.1 149.625L126.225 148.275L128.025 147.6ZM130.05 153.45L128.475 154.125V155.25L128.925 155.7H130.5L131.625 155.025V153.45H130.05Z" fill="#001D99"/>
<path d="M55.75 0H57.55L58.675 1.125L58.9 1.575V3.15L57.325 4.5L55.3 5.175L53.275 5.625L51.025 8.325L48.325 9.675L44.725 10.575L43.15 10.35L42.025 9L41.8 7.875L42.475 6.75L43.6 5.85L45.625 5.175L47.65 4.725L50.35 1.8L52.825 0.675L55.75 0Z" fill="#FF8A00"/>
<path d="M83.875 0H85.675L86.8 1.125L87.025 1.575V2.925L85.9 4.275L83.425 5.175L81.4 5.625L79.825 7.65L78.25 9L76.675 9.675L72.85 10.575L71.275 10.35L70.15 8.775L70.375 7.2L71.95 5.85L73.75 5.175L75.775 4.725L78.475 1.8L80.95 0.675L83.875 0Z" fill="#FF8A00"/>
<path d="M86.175 147.6L87.75 147.825V157.725H84.825L83.925 156.825L82.575 157.725L81.675 157.95H79.65L78.3 157.275L77.4 156.15L77.175 155.475V147.825H81L81.45 155.25L83.025 155.025L83.7 154.35L83.925 147.825L86.175 147.6Z" fill="#001D99"/>
<path d="M51.975 147.6L54.45 147.825L55.125 148.5V148.95L56.025 148.725V148.275L57.15 147.6H60.075L61.2 148.275L62.1 149.85V157.725H58.5L58.275 157.275L58.05 150.75L56.475 150.525L55.8 150.75L55.575 151.875V157.5L55.35 157.725H51.75V147.825L51.975 147.6Z" fill="#001D99"/>
<path d="M92.7 147.6H96.525L98.325 148.275L99.45 149.175L99.675 150.75L97.65 150.975L96.525 150.75L95.4 150.075L93.6 149.85L93.825 150.975L97.2 151.425L99 152.325L99.9 153.45L100.125 154.8L99.45 156.375L98.325 157.5L96.75 157.95H92.925L91.125 157.275L90 156.15L89.55 155.25L89.775 154.35L92.7 154.575L94.05 155.475L95.175 155.7L96.075 155.25V154.575L92.25 153.9L90.225 152.55L89.775 151.65L90 149.625L91.125 148.275L92.7 147.6Z" fill="#001D99"/>
<path d="M103.5 144.675H106.2L106.425 144.9V147.6L108.45 147.825V150.3H106.425L106.65 155.25L108.225 155.475L108.45 155.7V157.725L108 157.95H104.4L103.275 157.275L102.6 156.375L102.15 150.525L101.25 149.625L101.025 148.725L102.825 146.925L103.275 144.9L103.5 144.675Z" fill="#001D99"/>
<path d="M44.775 144.675H48.6L48.825 144.9V157.725H44.775L44.55 144.9L44.775 144.675Z" fill="#001D99"/>
<path d="M116.775 147.375L117.675 147.825V150.525L116.1 150.975L114.75 151.425L114.3 152.325L114.075 157.725H110.475V147.825H113.4L114.075 148.5L115.2 147.6L116.775 147.375Z" fill="#001D99"/>
<path d="M119.25 147.6H122.175L122.85 147.825V157.725H119.025V147.825L119.25 147.6Z" fill="#001D99"/>
<path d="M119.025 144H122.625L122.85 144.225V146.475L121.725 146.7L119.025 146.475V144Z" fill="#001D99"/>
<path d="M82.35 144H85.725V144.675L83.025 146.475L81.225 146.7L81 145.8L82.35 144Z" fill="#001D99"/>
</svg>
