<?xml version="1.0" encoding="UTF-8"?>
<svg version="1.1" viewBox="0 0 800 800" width="1280" height="1280" xmlns="http://www.w3.org/2000/svg">
<path transform="translate(174,168)" d="m0 0h59l5 5 1 2 1 9 7 163v8h35l5-106 3-60 1-14 4-5 4-2h58l5 4 2 7 7 166 1 9 22 1v-64l2-5 14-7 33-12 70-26 30-11 40-15 15-5h7l6 4 1 6v35l17-6 21-8h6l6 4 1 2v372l-4 4-23 1h-489l-7-1-3-4-1-4v-253l4-6 4-1h14l1-24 6-123 2-33 3-5zm15 20-2 1-1 20 3 1h30l1-2-1-19zm122 1-1 19 6 2h26l2-2-1-19zm-126 41-1 8v23h38v-12l-1-19zm124 0-1 12v19h38v-12l-1-18-1-1zm281 5-26 9-57 21-49 18-30 11-13 5v55l1 1h39l1-1 1-10 1-25 4-4 43-17 49-19 33-13 4-2v-29zm49 32-41 16-57 22-46 18-16 6-2 2-1 38-5 5-314 1-1 2 1 185 1 1h326l3-1 1-119 1-51 4-4 3-1h116l7 2 2 6 1 168h19l1-1 1-213v-82zm-454 14-3 1-3 63v9l1 1h46v-17l-2-48-1-8-13-1zm129 0-7 1-1 3-3 68 2 2h45v-20l-2-46-1-7-4-1zm195 125-1 1v155l1 1h92v-157zm-352 176-1 1v18l2 3h481l4-1v-20l-21-1z" fill="#F79A60"/>
<path transform="translate(185,479)" d="m0 0h67l4 2v2h2l2 4v47l-6 7h-72l-4-5-1-3v-46l6-7zm13 21v21h40l1-1v-20z" fill="#F79A60"/>
<path transform="translate(392,479)" d="m0 0h67l6 4 2 4v44l-2 6-4 4h-71l-5-5-1-3v-47zm13 21v21h40l1-1v-20z" fill="#F79A60"/>
<path transform="translate(290,479)" d="m0 0h65l5 3 3 4 1 28-1 20-4 6-1 1h-72l-4-4-2-6v-44l7-7zm11 21v19l1 2h40l1-6v-15z" fill="#F79A60"/>
<path transform="translate(206,396)" d="m0 0h33l15 1 6 7v47l-5 6-2 1h-70l-5-5-1-2v-47l5-6 2-1zm-8 21v21h41v-21z" fill="#F79A60"/>
<path transform="translate(395,396)" d="m0 0 66 1 5 5 1 6v39l-2 7-3 3-3 1h-69l-6-7v-47l5-6zm10 21v21h41v-21z" fill="#F79A60"/>
<path transform="translate(288,397)" d="m0 0h69l6 6v49l-5 5-2 1h-69l-5-5-2-4v-43l3-5zm13 20v21h41l1-1v-20z" fill="#F79A60"/>
<path transform="translate(316,640)" d="m0 0h16l1 1v59l-1 1h-12l-2-3-4 1-7 3h-10l-7-4-5-10v-19l3-6 5-5 4-2h11l8 3zm-11 28-3 3-1 3v11l3 5 5 1 6-4 1-2v-11l-3-5z" fill="#1253AF"/>
<path transform="translate(569,656)" d="m0 0h20l7 3 5 5 1 3 1 21 5 6v6l-4 2h-11l-5-3h-4l-8 3h-14l-7-6-1-3v-8l7-8 4-2 6-1h14l-1-7-9 1-4 2-6 1h-10l1-6 5-6zm9 26-7 3v5l2 2h7l5-3v-7z" fill="#1555B0"/>
<path transform="translate(246,96)" d="m0 0h8l5 5 1 2v7l-7 6-9 3-9 2-10 12-12 6-16 4-7-1-5-6-1-5 3-5 5-4 9-3 9-2 12-13 11-5z" fill="#F79A60"/>
<path transform="translate(371,96)" d="m0 0h8l5 5 1 2v6l-5 6-11 4-9 2-7 9-7 6-7 3-17 4-7-1-5-7 1-7 7-6 8-3 9-2 12-13 11-5z" fill="#F79A60"/>
<path transform="translate(383,656)" d="m0 0 7 1v44h-13l-4-4-6 4-4 1h-9l-6-3-4-5-1-3v-34h17l2 33 7-1 3-3 1-29z" fill="#1253AF"/>
<path transform="translate(231,656)" d="m0 0 11 1 3 3v2l4-1v-2l5-3h13l5 3 4 7v35h-16l-1-2-1-29-7-1-3 1-1 5v25l-1 1h-16v-44z" fill="#0E50AE"/>
<path transform="translate(412,656)" d="m0 0h17l8 3 5 4 1 7-9 1-5-1-5-3-8-1 1 5 15 2 8 4 4 5 1 6-3 7-5 5-7 2h-17l-8-3-5-5-2-4 1-4 13 1 6 4 5 1 4-2v-3l-17-3-9-6-2-4 1-9 5-6z" fill="#1656B0"/>
<path transform="translate(460,643)" d="m0 0h12l1 1v12l9 1v11h-9l1 22 7 1 1 1v9l-2 1h-16l-5-3-3-4-2-26-4-4-1-4 8-8 2-9z" fill="#1454AF"/>
<path transform="translate(199,643)" d="m0 0h17l1 1v57h-18l-1-57z" fill="#0A4DAC"/>
<path transform="translate(519,655)" d="m0 0 4 2v12l-7 2-6 2-2 4-1 24h-16v-44h13l3 3 5-4z" fill="#0B4EAD"/>
<path transform="translate(530,656)" d="m0 0h13l3 1v44h-17v-44z" fill="#1757B1"/>
<path transform="translate(529,640)" d="m0 0h16l1 1v10l-5 1-12-1z" fill="#1555B0"/>
<path transform="translate(366,640)" d="m0 0h15v3l-12 8-8 1-1-4z" fill="#2863B6"/>
</svg>
