<?xml version="1.0" encoding="UTF-8"?>
<svg version="1.1" viewBox="0 0 800 800" width="1280" height="1280" xmlns="http://www.w3.org/2000/svg">
<path transform="translate(389,128)" d="m0 0h20l14 3 16 8 12 11 6 7 7 12v2l94 1 8 3 6 5 5 9 1 10-3 9-5 7-7 5v57l97 1 7 3 4 5 3 6v12l-4 7-6 6-1 62v205l-2 6-6 1h-93l-1 30-5 2h-316l-1-2v-30h-96l-4-1-1-2-1-270-7-7-4-7v-12l6-9 5-4 3-1 98-1v-57l-5-2-7-8-3-6-1-4v-8l4-9 6-7 9-4 94-1 9-15 9-10 8-7 16-8zm5 8-16 4-12 6-11 10-7 10-5 11-3 15v9l3 16 7 14 11 12 10 7 12 5 11 2h13l14-3 13-7 10-9 6-7 7-13 3-16v-10l-3-16-7-14-11-12-12-8-14-5-7-1zm-153 45-6 4-4 8v8l6 9 7 3h26l62-1v-31zm286-1-59 1v31l3 1h83l8-2 6-7 1-10-3-7-5-5-2-1-12-1zm-279 41-1 1v390l1 3h87l1-120 1-1 34-1h69l24 1 1 121h88v-393l-1-1h-87l-3 5-9 14-4 5-11 9-14 7-12 3-17 1-14-2-12-5-11-7-9-8-9-14-5-8zm-104 65-6 2-4 8 1 8 6 6h97l1-23-1-1zm418 0v24l5 1 92-1 5-4 2-10-3-7-3-2-11-1zm-415 33-1 80v96l1 87h91l1-60v-203zm415 0v263h91l1-23v-239l-1-1zm-217 182-1 1v113h51v-114zm62 0-2 1-1 112 1 1h50l1-1v-113z" fill="#F9AE7A"/>
<path transform="translate(413,278)" d="m0 0h128l1 4v127l-1 14-2 1h-125l-2-2v-143zm9 8-2 1v59l1 1h51v-61zm60 0-1 1v59l1 1h50l1-60-1-1zm-61 69-1 2v56l2 3h47l3-1v-59l-18-1zm65 0-5 1v59l1 1h50l1-59-1-1-8-1z" fill="#F9AE79"/>
<path transform="translate(260,278)" d="m0 0h127l1 1v144l-4 1h-124l-1-1v-144zm9 8-2 4 1 57h50l1-1v-60zm60 0-1 1v59l1 1h50l1-22v-38l-1-1zm-61 69v61h49l2-1v-59l-22-1zm62 0-2 1v59l1 1h46l4-1 1-59-9-1z" fill="#F9AE79"/>
<path transform="translate(602,334)" d="m0 0h29l7 1v201l-7 2h-52l-2-3v-199l1-1zm-16 9v40h43l1-26v-13l-1-1zm0 49v40h43l1-39-1-1zm0 48v40l1 1h39l3-1 1-38-1-2zm0 49v40h43l1-39-1-1z" fill="#F9AE79"/>
<path transform="translate(194,334)" d="m0 0h22l7 1v196l-1 6-13 1h-43l-4-2v-201zm-23 9v40h43l1-16v-24zm0 49v40h43l1-14v-26zm0 48v40l1 1 42-1 1-16v-23l-1-1zm0 49v40l3 1h39l2-1v-39l-1-1z" fill="#F9AE79"/>
<path transform="translate(383,152)" d="m0 0h33l2 2v24l26 1 1 3v29l-2 3-7 1h-18v24l-2 2-4 1h-25l-4-2-1-5v-18l1-2h-23l-4-2-1-3v-26l2-5 24-1 1-24zm9 8-1 1-1 25-5 1h-20l-1 14 2 5 25 1v11l1 14h17l1-24 1-1 21-1 4-1v-17l-26-1-1-26-4-1z" fill="#F9AE79"/>
<path transform="translate(276,642)" d="m0 0h19l10 4 6 7 2 7-6 2-10-1-7-5-5-1-5 1 1 5 5 2 18 4 7 6 3 7-1 9-5 8-7 4-5 1h-19l-10-3-6-7-2-5v-5l5-1h9l5 4 3 3h10l2-1-1-4-21-6-6-4-5-6-1-7 3-9 7-6z" fill="#1057B6"/>
<path transform="translate(465,640)" d="m0 0h17l1 1-1 60-3 1h-8l-4-3v-2l-8 5h-13l-6-4-4-5-2-5v-18l4-8 6-5 2-1h14l5 2zm-10 28-4 5-1 8 2 7 3 2h6l4-4 1-3v-8l-3-5-3-2z" fill="#1359B7"/>
<path transform="translate(513,655)" d="m0 0 13 1 8 4 6 8 2 9-1 5-3 1 4 2-3 9-7 6-6 2h-19l-8-4-5-5-3-6-1-11 4-11 8-7 5-2zm0 13-3 2v2l13 1-1-4-2-1zm-4 15-1 4 4 4h10l3-5v-3z" fill="#1157B6"/>
<path transform="translate(342,655)" d="m0 0 13 1 8 4 3 3 1 3 1 20 3 5 2 2v7l-3 2h-13l-3-2v-2l-5 1-7 3h-15l-7-6-1-8 2-6 5-5 8-3 16-1-1-5h-8l-7 3h-13v-7l7-6 6-2zm3 27-7 2-2 2 1 5 7 1 5-2 1-7z" fill="#165BB8"/>
<path transform="translate(379,656)" d="m0 0h15l2 2 1 30 1 1 9-1 1-31 2-1h15l1 2v37l-1 6-10 1-4-2-1-3-4 2-7 3h-11l-6-4-3-6-1-17z" fill="#1B5FB9"/>
<path transform="translate(419,562)" d="m0 0h22l1 1v7l-6 1-17-1-1-7z" fill="#F9AF7B"/>
<path transform="translate(360,562)" d="m0 0h22l1 4-1 4-6 1-17-1v-7z" fill="#F9AF7B"/>
<path transform="translate(412,639)" d="m0 0 5 1-2 4-10 7-9 1-1-3 5-8 2-1z" fill="#336FC0"/>
<path transform="translate(528,681)" d="m0 0 8 1 1 3-2 1-9 1-2 2 1-6h-16v-1z" fill="#FEFEFE"/>
<path transform="translate(512,667)" d="m0 0h9l3 3v4h-15l-1-3zm1 1-3 2v2l13 1-1-4-2-1z" fill="#FEFEFE"/>
</svg>
