<svg width="180" height="180" viewBox="0 0 180 180" fill="none" xmlns="http://www.w3.org/2000/svg">
<path d="M88.175 8H92.675L95.825 8.675L99.425 10.475L102.125 12.95L103.475 14.525L105.05 17.225V17.675L126.2 17.9L128 18.575L129.35 19.7L130.475 21.725L130.7 23.975L130.025 26L128.9 27.575L127.325 28.7V41.525L149.15 41.75L150.725 42.425L151.625 43.55L152.3 44.9V47.6L151.4 49.175L150.05 50.525L149.825 64.475V110.6L149.375 111.95L148.025 112.175H127.1L126.875 118.925L125.75 119.375H54.65L54.425 118.925V112.175H32.825L31.925 111.95L31.7 111.5L31.475 50.75L29.9 49.175L29 47.6V44.9L30.35 42.875L31.475 41.975L32.15 41.75L54.2 41.525V28.7L53.075 28.25L51.5 26.45L50.825 25.1L50.6 24.2V22.4L51.5 20.375L52.85 18.8L54.875 17.9L76.025 17.675L78.05 14.3L80.075 12.05L81.875 10.475L85.475 8.675L88.175 8ZM89.3 9.8L85.7 10.7L83 12.05L80.525 14.3L78.95 16.55L77.825 19.025L77.15 22.4V24.425L77.825 28.025L79.4 31.175L81.875 33.875L84.125 35.45L86.825 36.575L89.3 37.025H92.225L95.375 36.35L98.3 34.775L100.55 32.75L101.9 31.175L103.475 28.25L104.15 24.65V22.4L103.475 18.8L101.9 15.65L99.425 12.95L96.725 11.15L93.575 10.025L92 9.8H89.3ZM54.875 19.925L53.525 20.825L52.625 22.625V24.425L53.975 26.45L55.55 27.125H61.4L75.35 26.9V19.925H54.875ZM119.225 19.7L105.95 19.925V26.9L106.625 27.125H125.3L127.1 26.675L128.45 25.1L128.675 22.85L128 21.275L126.875 20.15L126.425 19.925L123.725 19.7H119.225ZM56.45 28.925L56.225 29.15V116.9L56.45 117.575H76.025L76.25 90.575L76.475 90.35L84.125 90.125H99.65L105.05 90.35L105.275 117.575H125.075V29.15L124.85 28.925H105.275L104.6 30.05L102.575 33.2L101.675 34.325L99.2 36.35L96.05 37.925L93.35 38.6L89.525 38.825L86.375 38.375L83.675 37.25L81.2 35.675L79.175 33.875L77.15 30.725L76.025 28.925H56.45ZM33.05 43.55L31.7 44L30.8 45.8L31.025 47.6L32.375 48.95H54.2L54.425 43.775L54.2 43.55H33.05ZM127.1 43.55V48.95L128.225 49.175L148.925 48.95L150.05 48.05L150.5 45.8L149.825 44.225L149.15 43.775L146.675 43.55H127.1ZM33.725 50.975L33.5 68.975V90.575L33.725 110.15H54.2L54.425 96.65V50.975H33.725ZM127.1 50.975V110.15H147.575L147.8 104.975V51.2L147.575 50.975H127.1ZM78.275 91.925L78.05 92.15V117.575H89.525V91.925H78.275ZM92.225 91.925L91.775 92.15L91.55 117.35L91.775 117.575H103.025L103.25 117.35V91.925H92.225Z" fill="#FF8A00"/>
<path d="M93.575 41.75H122.375L122.6 42.65V71.225L122.375 74.375L121.925 74.6H93.8L93.35 74.15V41.975L93.575 41.75ZM95.6 43.55L95.15 43.775V57.05L95.375 57.275H106.85V43.55H95.6ZM109.1 43.55L108.875 43.775V57.05L109.1 57.275H120.35L120.575 43.775L120.35 43.55H109.1ZM95.375 59.075L95.15 59.525V72.125L95.6 72.8H106.175L106.85 72.575V59.3L102.8 59.075H95.375ZM110 59.075L108.875 59.3V72.575L109.1 72.8H120.35L120.575 59.525L120.35 59.3L118.55 59.075H110Z" fill="#FF8A00"/>
<path d="M59.15 41.75H87.725L87.95 41.975V74.375L87.05 74.6H59.15L58.925 74.375V41.975L59.15 41.75ZM61.175 43.55L60.725 44.45L60.95 57.275H72.2L72.425 57.05V43.55H61.175ZM74.675 43.55L74.45 43.775V57.05L74.675 57.275H85.925L86.15 52.325V43.775L85.925 43.55H74.675ZM60.95 59.075V72.8H71.975L72.425 72.575V59.3L67.475 59.075H60.95ZM74.9 59.075L74.45 59.3V72.575L74.675 72.8H85.025L85.925 72.575L86.15 59.3L84.125 59.075H74.9Z" fill="#FF8A00"/>
<path d="M136.1 54.35H142.625L144.2 54.575V99.8L142.625 100.25H130.925L130.475 99.575V54.8L130.7 54.575L136.1 54.35ZM132.5 56.375V65.375H142.175L142.4 59.525V56.6L142.175 56.375H132.5ZM132.5 67.4V76.4H142.175L142.4 67.625L142.175 67.4H132.5ZM132.5 78.2V87.2L132.725 87.425H141.5L142.175 87.2L142.4 78.65L142.175 78.2H132.5ZM132.5 89.225V98.225H142.175L142.4 89.45L142.175 89.225H132.5Z" fill="#FF8A00"/>
<path d="M44.3 54.35H49.25L50.825 54.575V98.675L50.6 100.025L47.675 100.25H38L37.1 99.8V54.575L44.3 54.35ZM39.125 56.375V65.375H48.8L49.025 61.775V56.375H39.125ZM39.125 67.4V76.4H48.8L49.025 73.25V67.4H39.125ZM39.125 78.2V87.2L39.35 87.425L48.8 87.2L49.025 83.6V78.425L48.8 78.2H39.125ZM39.125 89.225V98.225L39.8 98.45H48.575L49.025 98.225V89.45L48.8 89.225H39.125Z" fill="#FF8A00"/>
<path d="M86.825 13.4H94.25L94.7 13.85V19.25L100.55 19.475L100.775 20.15V26.675L100.325 27.35L98.75 27.575H94.7V32.975L94.25 33.425L93.35 33.65H87.725L86.825 33.2L86.6 32.075V28.025L86.825 27.575H81.65L80.75 27.125L80.525 26.45V20.6L80.975 19.475L86.375 19.25L86.6 13.85L86.825 13.4ZM88.85 15.2L88.625 15.425L88.4 21.05L87.275 21.275H82.775L82.55 24.425L83 25.55L88.625 25.775V28.25L88.85 31.4H92.675L92.9 26L93.125 25.775L97.85 25.55L98.75 25.325V21.5L92.9 21.275L92.675 15.425L91.775 15.2H88.85Z" fill="#FF8A00"/>
<path d="M62.1 144.45H66.375L68.625 145.35L69.975 146.925L70.425 148.5L69.075 148.95L66.825 148.725L65.25 147.6L64.125 147.375L63 147.6L63.225 148.725L64.35 149.175L68.4 150.075L69.975 151.425L70.65 153L70.425 155.025L69.3 156.825L67.725 157.725L66.6 157.95H62.325L60.075 157.275L58.725 155.7L58.275 154.575V153.45L59.4 153.225H61.425L62.55 154.125L63.225 154.8H65.475L65.925 154.575L65.7 153.675L60.975 152.325L59.625 151.425L58.5 150.075L58.275 148.5L58.95 146.475L60.525 145.125L62.1 144.45Z" fill="#001D99"/>
<path d="M104.625 144H108.45L108.675 144.225L108.45 157.725L107.775 157.95H105.975L105.075 157.275V156.825L103.275 157.95H100.35L99 157.05L98.1 155.925L97.65 154.8V150.75L98.55 148.95L99.9 147.825L100.35 147.6H103.5L104.625 148.05V144ZM102.375 150.3L101.475 151.425L101.25 153.225L101.7 154.8L102.375 155.25H103.725L104.625 154.35L104.85 153.675V151.875L104.175 150.75L103.5 150.3H102.375Z" fill="#001D99"/>
<path d="M115.425 147.375L118.35 147.6L120.15 148.5L121.5 150.3L121.95 152.325L121.725 153.45L121.05 153.675L121.95 154.125L121.275 156.15L119.7 157.5L118.35 157.95H114.075L112.275 157.05L111.15 155.925L110.475 154.575L110.25 152.1L111.15 149.625L112.95 148.05L114.075 147.6L115.425 147.375ZM115.425 150.3L114.75 150.75V151.2L117.675 151.425L117.45 150.525L117 150.3H115.425ZM114.525 153.675L114.3 154.575L115.2 155.475H117.45L118.125 154.35V153.675H114.525Z" fill="#001D99"/>
<path d="M76.95 147.375L79.875 147.6L81.675 148.5L82.35 149.175L82.575 149.85L82.8 154.35L83.475 155.475L83.925 155.925V157.5L83.25 157.95H80.325L79.65 157.5V157.05L78.525 157.275L76.95 157.95H73.575L72 156.6L71.775 154.8L72.225 153.45L73.35 152.325L75.15 151.65L78.75 151.425L78.525 150.3H76.725L75.15 150.975H72.225V149.4L73.8 148.05L75.15 147.6L76.95 147.375ZM77.625 153.45L76.05 153.9L75.6 154.35L75.825 155.475L77.4 155.7L78.525 155.25L78.75 153.675L77.625 153.45Z" fill="#001D99"/>
<path d="M85.275 147.6H88.65L89.1 148.05L89.325 154.8L89.55 155.025L91.575 154.8L91.8 147.825L92.25 147.6H95.625L95.85 148.05V156.375L95.625 157.725L93.375 157.95L92.475 157.5L92.25 156.825L91.35 157.275L89.775 157.95H87.3L85.95 157.05L85.275 155.7L85.05 151.875L85.275 147.6Z" fill="#001D99"/>
<path d="M94.925 105.65H99.875L100.1 105.875V107.45L98.75 107.675L94.925 107.45L94.7 105.875L94.925 105.65Z" fill="#FF8A00"/>
<path d="M81.65 105.65H86.6L86.825 106.55L86.6 107.45L85.25 107.675L81.425 107.45V105.875L81.65 105.65Z" fill="#FF8A00"/>
<path d="M92.7 143.775L93.825 144L93.375 144.9L91.125 146.475L89.1 146.7L88.875 146.025L90 144.225L90.45 144L92.7 143.775Z" fill="#001D99"/>
<path d="M118.8 153.225L120.6 153.45L120.825 154.125L120.375 154.35L118.35 154.575L117.9 155.025L118.125 153.675H114.525V153.45L118.8 153.225Z" fill="#FEFEFE"/>
<path d="M115.2 150.075H117.225L117.9 150.75V151.65H114.525L114.3 150.975L115.2 150.075ZM115.425 150.3L114.75 150.75V151.2L117.675 151.425L117.45 150.525L117 150.3H115.425Z" fill="#FEFEFE"/>
</svg>
