<svg width="180" height="180" viewBox="0 0 180 180" fill="none" xmlns="http://www.w3.org/2000/svg">
<path d="M35.475 14H41.55L44.25 14.675L47.85 16.475L49.65 17.825L51.45 19.4L53.475 22.325L54.825 25.25L55.5 27.725L55.95 32.225L57.075 32.675L62.7 36.275L66.075 38.525L69.9 41L78.225 46.4L85.425 51.125L89.25 53.6L93.975 56.75L99.6 60.35L104.1 63.275L109.275 66.65L116.925 71.6L124.125 76.325L127.95 78.8L133.8 82.625L135.375 82.4L138.3 81.5L139.875 81.275H144.375L147.3 81.95L150 83.075L152.475 84.65L154.95 86.9L156.75 89.375L156.525 89.825L140.325 90.05L137.85 90.95L136.05 92.3L134.7 94.1L133.8 96.575V100.175L134.7 102.65L136.725 104.9L138.525 106.025L141 106.7L156.75 106.925L156.3 108.05L153.825 110.975L151.125 113L147.75 114.575L145.275 115.25L143.925 115.475H139.875L136.275 114.575L133.575 113.45L131.325 111.875L129.075 109.85L127.05 106.925L125.925 104.45L125.25 102.425L124.8 99.5V97.7L123.675 96.8L102.3 82.85L96.45 79.025L92.625 76.55L79.575 68L66.075 59.225L60.9 55.85L54.375 51.575L46.725 46.625L45.375 46.85L42.45 47.75L38.625 48.2L34.575 47.75L31.875 46.85L28.95 45.275L26.925 43.7V43.25L26.25 43.025L24 40.1V39.425L40.2 39.2L42.675 38.3L44.7 36.725L46.05 34.925L46.725 32.675V29.3L45.825 26.6L44.25 24.575L42 23.225L39.525 22.55L24 22.325L24.225 21.425L26.025 19.175L28.275 17.15L31.2 15.35L34.35 14.225L35.475 14Z" fill="#FF8A00"/>
<path d="M72.825 65.525L73.95 65.75L78.225 68.45L82.275 71.15L87.225 74.3L88.8 75.425L88.35 76.325L86.325 77.45L82.5 80.15L72.6 86.675L69 89.15L60.225 95L55.275 98.375L42.45 106.925L40.2 108.275L38.625 108.725H35.025L32.325 107.6L30.075 105.575L28.5 102.425L28.275 101.525V99.05L28.95 96.8L30.3 94.55L32.1 92.975L38.175 88.925L47.85 82.4L59.325 74.75L68.325 68.675L72.375 65.975L72.825 65.525Z" fill="#FF8A00"/>
<path d="M145.95 20.75L147.075 20.975L149.325 24.575L152.025 28.625L151.8 29.525L149.325 31.1L139.65 37.625L136.95 39.425L127.275 45.95L114.45 54.5L108.15 58.775L104.1 61.475L102.975 61.25L96.9 57.2L94.65 55.625L94.875 54.95L104.775 48.425L107.7 46.4L118.5 39.2L128.175 32.675L136.95 26.825L145.275 21.2L145.95 20.75Z" fill="#FF8A00"/>
<path d="M49.725 144.45H53.325L55.8 145.35L57.15 146.925L57.6 148.5L57.375 148.725H54L53.325 148.5L52.65 147.6L51.3 147.375L50.175 147.825V148.5L51.75 149.175L55.575 150.075L56.925 150.975L57.825 152.55V154.8L56.475 156.825L54.225 157.95L52.65 158.175H50.4L48.375 157.725L46.575 156.6L45.675 155.25L45.45 153.225H48.6L49.5 153.675L50.625 154.8H52.875L53.325 153.675L49.5 152.775L47.25 151.875L45.9 150.3L45.675 149.625V147.6L46.35 146.25L48.15 144.9L49.725 144.45Z" fill="#001D99"/>
<path d="M62.775 147.6H67.05L68.85 148.5L70.2 150.075L70.65 151.425V153.45L63.225 153.675L63.45 154.8L64.35 155.475H65.925L66.6 155.25L67.05 153.9H70.65V155.25L69.75 156.6L68.625 157.5L67.5 157.95L66.15 158.175H64.125L62.1 157.725L60.75 156.825L59.85 155.7L59.175 154.125V151.425L60.3 149.175L61.65 148.05L62.775 147.6ZM64.35 149.85L63.45 150.3L63 151.425L63.225 151.65H66.375L66.6 150.525L65.475 149.85H64.35Z" fill="#001D99"/>
<path d="M103.725 147.375L106.425 147.6L108.225 148.275L109.8 150.075L110.025 151.65L109.8 151.875H106.425L105.525 150.525L105.075 150.3H103.5L102.6 151.65V154.125L103.725 155.25H105.3L106.2 154.35L106.65 153.675H109.8L110.025 154.8L108.675 156.825L107.775 157.5L105.525 157.95L106.65 159.525V160.875L105.75 161.775L104.85 162H103.05L101.925 161.325L102.15 160.65H104.175L104.85 160.425L104.625 159.75L103.5 158.85V158.175L101.475 157.725L100.125 156.825L99.225 155.7L98.55 153.9V151.425L99.675 149.175L101.7 147.825L103.725 147.375Z" fill="#001D99"/>
<path d="M116.55 147.375L119.025 147.6L120.825 148.275L122.4 150.075L122.85 151.65V154.125L122.175 155.925L120.375 157.5L118.125 158.175H116.1L113.85 157.5L112.275 156.15L111.375 153.9V151.65L112.275 149.4L113.85 148.05L114.975 147.6L116.55 147.375ZM116.325 150.075L115.425 150.975L115.2 151.65V154.125L116.325 155.475H117.9L119.025 154.35V151.65L118.575 150.525L117.675 150.075H116.325Z" fill="#001D99"/>
<path d="M128.475 147.375H130.5L133.2 148.275L134.325 149.625V150.75L132.3 150.975L130.5 150.3L130.05 150.075H128.025L128.475 150.75L132.525 151.65L133.875 152.55L134.775 153.9L134.55 155.7L133.875 156.825L132.3 157.725L131.625 157.95H127.35L125.775 157.275L124.65 156.375L124.2 155.7V154.575L125.325 154.35L127.575 154.575L128.7 155.475L129.825 155.7L130.95 155.475V154.575L126.45 153.675L124.65 152.55L124.425 151.875V150.075L125.1 148.95L126.225 148.05L128.475 147.375Z" fill="#001D99"/>
<path d="M80.1 147.6L83.925 147.825L84.6 149.85L85.5 153V153.675H85.95L86.85 150.075L87.75 147.825L88.425 147.6H91.125L91.35 148.5L88.2 156.825L87.525 157.725H83.7L82.575 155.475L80.1 148.725V147.6Z" fill="#001D99"/>
<path d="M72.675 147.6L75.6 147.825L75.825 148.725L76.725 148.275L77.175 147.6H79.65L80.1 149.625L79.875 150.525L78.525 150.975L76.95 151.425L76.5 152.1L76.275 157.725H72.675L72.45 157.5V147.825L72.675 147.6Z" fill="#001D99"/>
<path d="M93.15 147.6H96.075L96.75 147.825V157.725L95.625 157.95L92.925 157.725L92.7 157.5V151.2L92.925 147.825L93.15 147.6Z" fill="#001D99"/>
<path d="M92.925 144H96.525L96.75 145.35V146.475L95.625 146.7L92.925 146.475L92.7 144.9L92.925 144Z" fill="#001D99"/>
</svg>
